{
	"asset":{
		"generator":"Khronos glTF Blender I/O v4.5.51",
		"version":"2.0"
	},
	"scene":0,
	"scenes":[
		{
			"name":"Scene",
			"nodes":[
				77
			]
		}
	],
	"nodes":[
		{
			"name":"Head",
			"rotation":[
				-0.20467457175254822,
				-2.2516413622497566e-08,
				-1.7280171960010193e-08,
				0.978830099105835
			],
			"scale":[
				1,
				0.9999998807907104,
				1
			],
			"translation":[
				-1.5835206410019786e-14,
				0.07119113206863403,
				9.872019290924072e-08
			]
		},
		{
			"children":[
				0
			],
			"name":"neck_01",
			"rotation":[
				0.30883726477622986,
				5.720464990588425e-09,
				3.132118564508346e-08,
				0.9511148929595947
			],
			"scale":[
				1,
				1,
				0.9999998807907104
			],
			"translation":[
				1.3329181508536792e-15,
				0.19815585017204285,
				-4.470348358154297e-08
			]
		},
		{
			"name":"index_04_leaf_l",
			"rotation":[
				-9.313250171061327e-10,
				1,
				3.348487470712148e-15,
				3.532567461661529e-06
			],
			"scale":[
				1,
				1,
				0.9999999403953552
			],
			"translation":[
				1.4606484910473228e-09,
				0.0235105250030756,
				2.03996108893989e-07
			]
		},
		{
			"children":[
				2
			],
			"name":"index_03_l",
			"rotation":[
				9.01246854922988e-10,
				-4.397149311330395e-12,
				-0.0001332918182015419,
				1
			],
			"translation":[
				1.4624674804508686e-09,
				0.027111781761050224,
				-3.3000532084770384e-08
			]
		},
		{
			"children":[
				3
			],
			"name":"index_02_l",
			"rotation":[
				1.5735729164134682e-08,
				1.1835720670205774e-07,
				-0.0021401806734502316,
				0.9999977350234985
			],
			"scale":[
				0.9999998807907104,
				0.9999999403953552,
				0.9999999403953552
			],
			"translation":[
				1.5106706996448338e-09,
				0.03171013668179512,
				1.109529819132149e-07
			]
		},
		{
			"children":[
				4
			],
			"name":"index_01_l",
			"rotation":[
				-0.00330927106551826,
				0.7071017622947693,
				-0.003309286665171385,
				0.70709627866745
			],
			"scale":[
				1.0000001192092896,
				1.0000001192092896,
				1
			],
			"translation":[
				0.0042000943794846535,
				0.08823654055595398,
				0.036204952746629715
			]
		},
		{
			"name":"middle_04_leaf_l",
			"rotation":[
				-1.862645593320167e-09,
				1,
				3.5511420091668706e-15,
				3.532567461661529e-06
			],
			"translation":[
				1.3724275049753487e-09,
				0.02962055243551731,
				2.249638839657564e-07
			]
		},
		{
			"children":[
				6
			],
			"name":"middle_03_l",
			"rotation":[
				2.25316583168933e-08,
				-1.1667328214670647e-10,
				-0.0032189532648772,
				0.9999948143959045
			],
			"scale":[
				0.9999998807907104,
				0.9999999403953552,
				1
			],
			"translation":[
				-6.0781530919484794e-09,
				0.029313717037439346,
				2.2345759020936384e-08
			]
		},
		{
			"children":[
				7
			],
			"name":"middle_02_l",
			"rotation":[
				-2.6949415143917577e-08,
				1.1833303403818718e-07,
				0.003867650870233774,
				0.9999924898147583
			],
			"scale":[
				1,
				0.9999999403953552,
				1
			],
			"translation":[
				5.60612534172833e-09,
				0.03642695024609566,
				3.3465232718299376e-07
			]
		},
		{
			"children":[
				8
			],
			"name":"middle_01_l",
			"rotation":[
				-0.007979895919561386,
				0.7070645689964294,
				-0.007979942485690117,
				0.7070589661598206
			],
			"scale":[
				1,
				0.9999998211860657,
				1
			],
			"translation":[
				0.0019000378670170903,
				0.08634151518344879,
				0.01067165844142437
			]
		},
		{
			"name":"pinky_04_leaf_l",
			"rotation":[
				-1.862648035810821e-09,
				1,
				-3.309168802693996e-13,
				3.651776296464959e-06
			],
			"scale":[
				1,
				0.9999997019767761,
				1
			],
			"translation":[
				-2.7339410735294223e-09,
				0.02091928943991661,
				1.5550941157016496e-07
			]
		},
		{
			"children":[
				10
			],
			"name":"pinky_03_l",
			"rotation":[
				-2.0288851487748616e-08,
				9.74684430388173e-11,
				0.0028987275436520576,
				0.9999958276748657
			],
			"scale":[
				1,
				1.0000001192092896,
				1
			],
			"translation":[
				4.715730028692633e-09,
				0.026631902903318405,
				-3.526315879298636e-07
			]
		},
		{
			"children":[
				11
			],
			"name":"pinky_02_l",
			"rotation":[
				1.1631510865584005e-08,
				1.1804188915220948e-07,
				-0.0017049507005140185,
				0.9999985694885254
			],
			"scale":[
				0.9999999403953552,
				0.9999999403953552,
				1
			],
			"translation":[
				-1.269108906853944e-08,
				0.030831875279545784,
				-1.0942171968508774e-07
			]
		},
		{
			"children":[
				12
			],
			"name":"pinky_01_l",
			"rotation":[
				-0.010447765700519085,
				0.7070324420928955,
				-0.01044782530516386,
				0.7070267796516418
			],
			"scale":[
				1,
				0.9999998807907104,
				1
			],
			"translation":[
				0.0038001772481948137,
				0.06994829326868057,
				-0.03399413824081421
			]
		},
		{
			"name":"ring_04_leaf_l",
			"rotation":[
				4.656587337947826e-10,
				1,
				3.378315015971703e-14,
				3.6517765238386346e-06
			],
			"translation":[
				-3.5388438845984638e-09,
				0.028301512822508812,
				5.390742785493785e-08
			]
		},
		{
			"children":[
				14
			],
			"name":"ring_03_l",
			"rotation":[
				2.4421529687401744e-08,
				-1.1753026329941463e-10,
				-0.0034885031636804342,
				0.9999939203262329
			],
			"scale":[
				0.9999999403953552,
				0.9999999403953552,
				1
			],
			"translation":[
				1.5785190043970942e-08,
				0.02760017290711403,
				-3.846049025924003e-07
			]
		},
		{
			"children":[
				15
			],
			"name":"ring_02_l",
			"rotation":[
				-1.565917173707021e-08,
				1.1877462213760737e-07,
				0.0024740637745708227,
				0.9999969601631165
			],
			"scale":[
				1,
				1.0000001192092896,
				1
			],
			"translation":[
				-6.584741640836e-10,
				0.035001277923583984,
				2.9213231300673215e-07
			]
		},
		{
			"children":[
				16
			],
			"name":"ring_01_l",
			"rotation":[
				0.002580936998128891,
				0.7071048617362976,
				0.0025809528306126595,
				0.7070992588996887
			],
			"scale":[
				1.0000001192092896,
				1.000000238418579,
				1.0000001192092896
			],
			"translation":[
				0.002200056565925479,
				0.08042968809604645,
				-0.013825259171426296
			]
		},
		{
			"name":"thumb_04_leaf_l",
			"rotation":[
				5.1130761846707173e-08,
				0.48539111018180847,
				3.2456053844498456e-08,
				0.8742971420288086
			],
			"scale":[
				1,
				1.0000001192092896,
				1.0000001192092896
			],
			"translation":[
				1.4058605302125216e-07,
				0.031272705644369125,
				6.984919309616089e-08
			]
		},
		{
			"children":[
				18
			],
			"name":"thumb_03_l",
			"rotation":[
				-0.0012815512018278241,
				5.819350917590782e-05,
				0.00025459934840910137,
				0.9999991655349731
			],
			"scale":[
				1,
				1,
				0.9999998807907104
			],
			"translation":[
				6.102563929744065e-07,
				0.03562040254473686,
				1.3504177331924438e-08
			]
		},
		{
			"children":[
				19
			],
			"name":"thumb_02_l",
			"rotation":[
				0.001912832260131836,
				0.00019212128245271742,
				-0.00044839372276328504,
				0.9999980330467224
			],
			"scale":[
				1,
				1,
				1.0000001192092896
			],
			"translation":[
				-2.0657898858189583e-07,
				0.03582090884447098,
				-2.0489096641540527e-08
			]
		},
		{
			"children":[
				20
			],
			"name":"thumb_01_l",
			"rotation":[
				0.2639968991279602,
				0.9450141191482544,
				0.18827389180660248,
				0.04250788316130638
			],
			"scale":[
				1.0000001192092896,
				1.000000238418579,
				1
			],
			"translation":[
				0.010000094771385193,
				-0.002875829581171274,
				0.029958125203847885
			]
		},
		{
			"children":[
				5,
				9,
				13,
				17,
				21
			],
			"name":"hand_l",
			"rotation":[
				-0.022376008331775665,
				-2.323985881957924e-06,
				-2.3651296032767277e-08,
				0.9997496008872986
			],
			"translation":[
				-1.393381410252914e-09,
				0.24930396676063538,
				6.1340870161075145e-09
			]
		},
		{
			"children":[
				22
			],
			"name":"lowerarm_l",
			"rotation":[
				0.023802174255251884,
				8.217321737902239e-05,
				-1.8789655769069213e-06,
				0.9997166991233826
			],
			"translation":[
				1.8186199213232612e-07,
				0.2403421401977539,
				6.257323548197746e-10
			]
		},
		{
			"children":[
				23
			],
			"name":"upperarm_l",
			"rotation":[
				0.17232586443424225,
				0.6858593225479126,
				-0.17179431021213531,
				0.68584805727005
			],
			"scale":[
				1,
				1.0000001192092896,
				1.0000001192092896
			],
			"translation":[
				-0.0016045552911236882,
				0.1410660594701767,
				-0.012286130338907242
			]
		},
		{
			"children":[
				24
			],
			"name":"clavicle_l",
			"rotation":[
				-0.5471324324607849,
				-0.32042762637138367,
				-0.39127787947654724,
				0.6669886708259583
			],
			"scale":[
				1,
				0.9999999403953552,
				1
			],
			"translation":[
				0.029299993067979813,
				0.1337030529975891,
				0.044819410890340805
			]
		},
		{
			"name":"index_04_leaf_r",
			"rotation":[
				9.313182447456825e-10,
				-1,
				7.243254864712327e-15,
				3.5325672342878534e-06
			],
			"translation":[
				-5.302354111336172e-10,
				0.023510558530688286,
				2.0421077806531684e-07
			]
		},
		{
			"children":[
				26
			],
			"name":"index_03_r",
			"rotation":[
				8.956276831284526e-10,
				6.7690302148204484e-12,
				0.0001332899701083079,
				1
			],
			"scale":[
				0.9999999403953552,
				0.9999999403953552,
				1
			],
			"translation":[
				-6.730260793119669e-11,
				0.027111755684018135,
				-3.2794773119348974e-08
			]
		},
		{
			"children":[
				27
			],
			"name":"index_02_r",
			"rotation":[
				1.5690400090306866e-08,
				-9.729104277766965e-08,
				0.0021401764824986458,
				0.9999977350234985
			],
			"scale":[
				0.9999998807907104,
				0.9999999403953552,
				1
			],
			"translation":[
				-1.7180354916490614e-09,
				0.031710051000118256,
				-8.25654922209651e-09
			]
		},
		{
			"children":[
				28
			],
			"name":"index_01_r",
			"rotation":[
				-0.003309270367026329,
				-0.7071017622947693,
				0.0033092868980020285,
				0.70709627866745
			],
			"scale":[
				1.0000001192092896,
				1,
				1
			],
			"translation":[
				-0.004199975170195103,
				0.08823645114898682,
				0.03620495647192001
			]
		},
		{
			"name":"middle_04_leaf_r",
			"rotation":[
				-1.3483323505486945e-15,
				-1,
				-4.0766001685454967e-16,
				3.5325672342878534e-06
			],
			"translation":[
				-2.3037500795908272e-09,
				0.02962053008377552,
				1.0511647019484371e-07
			]
		},
		{
			"children":[
				30
			],
			"name":"middle_03_r",
			"rotation":[
				2.239585583652115e-08,
				1.6201280594874135e-10,
				0.0032189551275223494,
				0.9999948143959045
			],
			"scale":[
				0.9999998807907104,
				0.9999998807907104,
				1
			],
			"translation":[
				4.2145984480157495e-09,
				0.02931375429034233,
				2.149347722024686e-08
			]
		},
		{
			"children":[
				31
			],
			"name":"middle_02_r",
			"rotation":[
				-2.6868153923942373e-08,
				-9.72586065017822e-08,
				-0.003867652267217636,
				0.9999924898147583
			],
			"scale":[
				1,
				0.9999999403953552,
				1
			],
			"translation":[
				-2.1236701286397874e-09,
				0.03642686828970909,
				2.1544278183682763e-07
			]
		},
		{
			"children":[
				32
			],
			"name":"middle_01_r",
			"rotation":[
				-0.007979894056916237,
				-0.7070645689964294,
				0.007979939691722393,
				0.7070589661598206
			],
			"scale":[
				1,
				0.9999999403953552,
				1
			],
			"translation":[
				-0.0018999186577275395,
				0.086341492831707,
				0.010671667754650116
			]
		},
		{
			"name":"pinky_04_leaf_r",
			"rotation":[
				-2.793972164738534e-09,
				-1,
				1.625464628347839e-13,
				3.65177675121231e-06
			],
			"translation":[
				6.459231371991336e-09,
				0.020919322967529297,
				1.531255122699804e-07
			]
		},
		{
			"children":[
				34
			],
			"name":"pinky_03_r",
			"rotation":[
				-2.0166032399515643e-08,
				-1.4757212118965413e-10,
				-0.0028987256810069084,
				0.9999958276748657
			],
			"translation":[
				-9.913492249324918e-10,
				0.026631755754351616,
				-1.1641290598163323e-07
			]
		},
		{
			"children":[
				35
			],
			"name":"pinky_02_r",
			"rotation":[
				1.1594559090610801e-08,
				-9.680875479034512e-08,
				0.0017048910958692431,
				0.9999985694885254
			],
			"scale":[
				0.9999999403953552,
				0.9999999403953552,
				1
			],
			"translation":[
				-2.5820554583333433e-09,
				0.030831918120384216,
				9.786674581846455e-09
			]
		},
		{
			"children":[
				36
			],
			"name":"pinky_01_r",
			"rotation":[
				-0.010447804816067219,
				-0.7070324420928955,
				0.010447865352034569,
				0.7070267796516418
			],
			"scale":[
				1,
				0.9999998211860657,
				1
			],
			"translation":[
				-0.003800058038905263,
				0.06994826346635818,
				-0.03399414196610451
			]
		},
		{
			"name":"ring_04_leaf_r",
			"rotation":[
				-2.32835167812695e-10,
				-1,
				1.3892683390411692e-13,
				3.651776296464959e-06
			],
			"scale":[
				0.9999999403953552,
				0.9999996423721313,
				1
			],
			"translation":[
				-5.776200850959867e-09,
				0.02830154448747635,
				1.7066086854811147e-07
			]
		},
		{
			"children":[
				38
			],
			"name":"ring_03_r",
			"rotation":[
				2.427617573630414e-08,
				1.8210105645621866e-10,
				0.0034885017666965723,
				0.9999939203262329
			],
			"translation":[
				-1.4156285033095628e-08,
				0.027600202709436417,
				-1.488621705902915e-07
			]
		},
		{
			"children":[
				39
			],
			"name":"ring_02_r",
			"rotation":[
				-1.5607776404635842e-08,
				-9.795145672342187e-08,
				-0.002474055392667651,
				0.9999969601631165
			],
			"translation":[
				9.081304597202688e-09,
				0.03500130772590637,
				2.9213242669356987e-07
			]
		},
		{
			"children":[
				40
			],
			"name":"ring_01_r",
			"rotation":[
				0.002580946544185281,
				-0.7071048617362976,
				-0.0025809628423303366,
				0.7070992588996887
			],
			"translation":[
				-0.002199937356635928,
				0.08042959868907928,
				-0.013825279660522938
			]
		},
		{
			"name":"thumb_04_leaf_r",
			"rotation":[
				8.947884566623543e-08,
				-0.48539113998413086,
				-2.2968899671127474e-08,
				0.8742971420288086
			],
			"scale":[
				1,
				1,
				0.9999999403953552
			],
			"translation":[
				7.078051567077637e-08,
				0.031272731721401215,
				1.2852251529693604e-07
			]
		},
		{
			"children":[
				42
			],
			"name":"thumb_03_r",
			"rotation":[
				-0.001281767268665135,
				-5.8082212490262464e-05,
				-0.00025411599199287593,
				0.9999991655349731
			],
			"translation":[
				-5.821384547743946e-07,
				0.03562026098370552,
				-4.470348358154297e-08
			]
		},
		{
			"children":[
				43
			],
			"name":"thumb_02_r",
			"rotation":[
				0.0019125830149278045,
				-0.00019216694636270404,
				0.00044883950613439083,
				0.9999980330467224
			],
			"scale":[
				1,
				0.9999999403953552,
				0.9999999403953552
			],
			"translation":[
				-1.1539668776094913e-07,
				0.03582097962498665,
				-2.8870999813079834e-08
			]
		},
		{
			"children":[
				44
			],
			"name":"thumb_01_r",
			"rotation":[
				0.2639978229999542,
				-0.9450138807296753,
				-0.18827374279499054,
				0.04250765219330788
			],
			"scale":[
				0.9999999403953552,
				1.0000003576278687,
				1.0000001192092896
			],
			"translation":[
				-0.009999975562095642,
				-0.0028758563566952944,
				0.029958127066493034
			]
		},
		{
			"children":[
				29,
				33,
				37,
				41,
				45
			],
			"name":"hand_r",
			"rotation":[
				-0.02237602323293686,
				2.324000661246828e-06,
				2.3651388403322926e-08,
				0.9997496008872986
			],
			"scale":[
				1,
				0.9999999403953552,
				1
			],
			"translation":[
				1.206010722398787e-07,
				0.24930404126644135,
				-5.484253051690757e-09
			]
		},
		{
			"children":[
				46
			],
			"name":"lowerarm_r",
			"rotation":[
				0.02380218356847763,
				-8.219125447794795e-05,
				1.8898463167715818e-06,
				0.9997166991233826
			],
			"scale":[
				1,
				1,
				0.9999999403953552
			],
			"translation":[
				-6.897971616126597e-08,
				0.24034211039543152,
				5.107722245156765e-09
			]
		},
		{
			"children":[
				47
			],
			"name":"upperarm_r",
			"rotation":[
				0.17232586443424225,
				-0.6858592629432678,
				0.17179431021213531,
				0.6858481168746948
			],
			"scale":[
				0.9999999403953552,
				1.0000001192092896,
				1.0000001192092896
			],
			"translation":[
				0.0016045494703575969,
				0.1410660445690155,
				-0.012286252342164516
			]
		},
		{
			"children":[
				48
			],
			"name":"clavicle_r",
			"rotation":[
				-0.5471324324607849,
				0.3204275369644165,
				0.39127781987190247,
				0.666988730430603
			],
			"scale":[
				0.9999998211860657,
				0.9999999403953552,
				0.9999998807907104
			],
			"translation":[
				-0.02930000051856041,
				0.1337030529975891,
				0.04481937736272812
			]
		},
		{
			"children":[
				1,
				25,
				49
			],
			"name":"spine_03",
			"rotation":[
				-0.10099762678146362,
				-3.361323308581632e-08,
				-1.304816787950358e-08,
				0.9948866963386536
			],
			"translation":[
				2.4143013976907213e-15,
				0.12640145421028137,
				-1.4901161193847656e-08
			]
		},
		{
			"children":[
				50
			],
			"name":"spine_02",
			"rotation":[
				-0.05572862923145294,
				-4.984097176929936e-05,
				-2.7909743494092254e-06,
				0.998445987701416
			],
			"scale":[
				1,
				0.9999998807907104,
				0.9999999403953552
			],
			"translation":[
				-1.1426440306092078e-12,
				0.1103447675704956,
				1.792795956134796e-08
			]
		},
		{
			"children":[
				51
			],
			"name":"spine_01",
			"rotation":[
				-0.06393158435821533,
				4.977786375093274e-05,
				-3.204262611689046e-06,
				0.9979543089866638
			],
			"translation":[
				-1.3607405133231332e-12,
				0.12655523419380188,
				-7.264316082000732e-08
			]
		},
		{
			"name":"ball_leaf_l",
			"rotation":[
				-1.9367938364212023e-09,
				0.0001727771887090057,
				-3.2183240447625217e-12,
				1
			],
			"translation":[
				1.2304519625416788e-09,
				0.06809969246387482,
				-6.31068530765333e-10
			]
		},
		{
			"children":[
				53
			],
			"name":"ball_l",
			"rotation":[
				-3.2927269785432145e-05,
				0.9816133379936218,
				-0.19088023900985718,
				0.0001697494153631851
			],
			"scale":[
				1,
				1.0000001192092896,
				0.9999998211860657
			],
			"translation":[
				1.5736937086785474e-08,
				0.1491694152355194,
				-1.858898457385294e-08
			]
		},
		{
			"children":[
				54
			],
			"name":"foot_l",
			"rotation":[
				-0.5978575348854065,
				1.3927991915352322e-07,
				-1.5122979846182716e-07,
				0.8016024231910706
			],
			"scale":[
				1,
				0.9999999403953552,
				0.9999998807907104
			],
			"translation":[
				8.338583157296853e-09,
				0.4661003649234772,
				-2.818452138342309e-09
			]
		},
		{
			"children":[
				55
			],
			"name":"calf_l",
			"rotation":[
				0.07122272998094559,
				-2.5442346895943047e-08,
				5.6580704566044915e-09,
				0.9974604249000549
			],
			"scale":[
				1,
				0.9999999403953552,
				1
			],
			"translation":[
				-1.0260367666603543e-08,
				0.4098643362522125,
				4.6986237123292085e-09
			]
		},
		{
			"children":[
				56
			],
			"name":"thigh_l",
			"rotation":[
				0.9893750548362732,
				-9.795000366352724e-09,
				1.8341077634431713e-07,
				0.1453859955072403
			],
			"scale":[
				1,
				1.0000001192092896,
				1.0000027418136597
			],
			"translation":[
				0.11139998584985733,
				0.010460044257342815,
				-0.008893008343875408
			]
		},
		{
			"name":"ball_leaf_r",
			"rotation":[
				-1.9367938364212023e-09,
				0.0001727771887090057,
				-3.2254294721201227e-12,
				1
			],
			"translation":[
				1.2304537388985182e-09,
				0.06809969246387482,
				-9.948664114745043e-10
			]
		},
		{
			"children":[
				58
			],
			"name":"ball_r",
			"rotation":[
				-3.2927269785432145e-05,
				0.9816133379936218,
				-0.19088023900985718,
				0.0001697494153631851
			],
			"scale":[
				1,
				1.0000001192092896,
				0.9999998211860657
			],
			"translation":[
				-1.4065387077266678e-08,
				0.1491694152355194,
				-1.6801273261535243e-08
			]
		},
		{
			"children":[
				59
			],
			"name":"foot_r",
			"rotation":[
				-0.5978575348854065,
				1.392799049426685e-07,
				-1.5122981267268187e-07,
				0.8016024231910706
			],
			"scale":[
				1,
				0.9999999403953552,
				0.9999998807907104
			],
			"translation":[
				-6.562578480640013e-09,
				0.4661003649234772,
				-5.563451033196998e-09
			]
		},
		{
			"children":[
				60
			],
			"name":"calf_r",
			"rotation":[
				0.07122272998094559,
				-2.5442346895943047e-08,
				5.6580704566044915e-09,
				0.9974604249000549
			],
			"scale":[
				1,
				0.9999999403953552,
				1
			],
			"translation":[
				4.640793527244114e-09,
				0.4098643362522125,
				4.614602033825577e-09
			]
		},
		{
			"children":[
				61
			],
			"name":"thigh_r",
			"rotation":[
				0.9893750548362732,
				-9.795000366352724e-09,
				1.8341077634431713e-07,
				0.1453859955072403
			],
			"scale":[
				1,
				1.0000001192092896,
				1.0000027418136597
			],
			"translation":[
				-0.11139998584985733,
				0.010460044257342815,
				-0.008893062360584736
			]
		},
		{
			"children":[
				52,
				57,
				62
			],
			"name":"pelvis",
			"rotation":[
				0.7879695892333984,
				7.397003543019309e-08,
				9.466427997040228e-08,
				0.6157141327857971
			],
			"translation":[
				0,
				0.04569995403289795,
				0.9317998886108398
			]
		},
		{
			"children":[
				63
			],
			"name":"root",
			"rotation":[
				-0.7071067690849304,
				0,
				0,
				0.7071067690849304
			]
		},
		{
			"mesh":0,
			"name":"Eyebrows",
			"skin":0
		},
		{
			"mesh":1,
			"name":"Eyes",
			"skin":0
		},
		{
			"mesh":2,
			"name":"Female_Ranger_Acc_Pauldrons",
			"skin":0
		},
		{
			"mesh":3,
			"name":"Female_Ranger_Arms",
			"skin":0
		},
		{
			"mesh":4,
			"name":"Female_Ranger_Arms_Bracer",
			"skin":0
		},
		{
			"mesh":5,
			"name":"Female_Ranger_Body",
			"skin":0
		},
		{
			"mesh":6,
			"name":"Female_Ranger_Body_Belt_1",
			"skin":0
		},
		{
			"mesh":7,
			"name":"Female_Ranger_Body_Belt_2",
			"skin":0
		},
		{
			"mesh":8,
			"name":"Female_Ranger_Feet",
			"skin":0
		},
		{
			"mesh":9,
			"name":"Female_Ranger_Head_Hood",
			"skin":0
		},
		{
			"mesh":10,
			"name":"Female_Ranger_Legs",
			"skin":0
		},
		{
			"mesh":11,
			"name":"Superhero_Female",
			"skin":0
		},
		{
			"children":[
				65,
				66,
				67,
				68,
				69,
				70,
				71,
				72,
				73,
				74,
				75,
				76,
				64
			],
			"name":"Armature"
		}
	],
	"materials":[
		{
			"doubleSided":true,
			"name":"MI_Hair_2",
			"normalTexture":{
				"index":0
			},
			"pbrMetallicRoughness":{
				"baseColorTexture":{
					"index":1
				},
				"metallicFactor":0,
				"roughnessFactor":0.8227272629737854
			}
		},
		{
			"doubleSided":true,
			"name":"MI_Eyes",
			"normalTexture":{
				"index":2
			},
			"pbrMetallicRoughness":{
				"baseColorTexture":{
					"index":3
				},
				"metallicFactor":0,
				"roughnessFactor":0.34545454382896423
			}
		},
		{
			"doubleSided":true,
			"name":"MI_Ranger",
			"normalTexture":{
				"index":4
			},
			"pbrMetallicRoughness":{
				"baseColorTexture":{
					"index":5
				},
				"metallicRoughnessTexture":{
					"index":6
				}
			}
		},
		{
			"doubleSided":true,
			"name":"MI_Regular_Female",
			"normalTexture":{
				"index":7
			},
			"pbrMetallicRoughness":{
				"baseColorTexture":{
					"index":8
				},
				"metallicFactor":0,
				"metallicRoughnessTexture":{
					"index":9
				}
			}
		},
		{
			"doubleSided":true,
			"name":"MI_Superhero_Female",
			"normalTexture":{
				"index":10
			},
			"pbrMetallicRoughness":{
				"baseColorTexture":{
					"index":11
				},
				"metallicFactor":0,
				"metallicRoughnessTexture":{
					"index":12
				}
			}
		}
	],
	"meshes":[
		{
			"name":"Eyebrows",
			"primitives":[
				{
					"attributes":{
						"POSITION":0,
						"NORMAL":1,
						"TEXCOORD_0":2,
						"TEXCOORD_1":3,
						"TEXCOORD_2":4,
						"TEXCOORD_3":5,
						"COLOR_0":6,
						"COLOR_1":7,
						"JOINTS_0":8,
						"WEIGHTS_0":9
					},
					"indices":10,
					"material":0
				}
			]
		},
		{
			"name":"Eyes",
			"primitives":[
				{
					"attributes":{
						"POSITION":12,
						"NORMAL":13,
						"TEXCOORD_0":14,
						"TEXCOORD_1":15,
						"TEXCOORD_2":16,
						"TEXCOORD_3":17,
						"COLOR_0":18,
						"COLOR_1":19,
						"JOINTS_0":20,
						"WEIGHTS_0":21
					},
					"indices":22,
					"material":1
				}
			]
		},
		{
			"name":"Female_Ranger_Acc_Pauldrons",
			"primitives":[
				{
					"attributes":{
						"POSITION":23,
						"NORMAL":24,
						"TEXCOORD_0":25,
						"COLOR_0":26,
						"COLOR_1":27,
						"COLOR_2":28,
						"JOINTS_0":29,
						"WEIGHTS_0":30
					},
					"indices":31,
					"material":2
				}
			]
		},
		{
			"name":"Female_Ranger_Arms",
			"primitives":[
				{
					"attributes":{
						"POSITION":32,
						"NORMAL":33,
						"TEXCOORD_0":34,
						"COLOR_0":35,
						"COLOR_1":36,
						"COLOR_2":37,
						"JOINTS_0":38,
						"WEIGHTS_0":39
					},
					"indices":40,
					"material":2
				},
				{
					"attributes":{
						"POSITION":41,
						"NORMAL":42,
						"TEXCOORD_0":43,
						"COLOR_0":44,
						"COLOR_1":45,
						"COLOR_2":46,
						"JOINTS_0":47,
						"WEIGHTS_0":48
					},
					"indices":49,
					"material":3
				}
			]
		},
		{
			"name":"Female_Ranger_Arms_Bracer",
			"primitives":[
				{
					"attributes":{
						"POSITION":50,
						"NORMAL":51,
						"TEXCOORD_0":52,
						"COLOR_0":53,
						"COLOR_1":54,
						"COLOR_2":55,
						"JOINTS_0":56,
						"WEIGHTS_0":57
					},
					"indices":58,
					"material":2
				}
			]
		},
		{
			"name":"Female_Ranger_Body",
			"primitives":[
				{
					"attributes":{
						"POSITION":59,
						"NORMAL":60,
						"TEXCOORD_0":61,
						"COLOR_0":62,
						"COLOR_1":63,
						"COLOR_2":64,
						"JOINTS_0":65,
						"WEIGHTS_0":66
					},
					"indices":67,
					"material":2
				}
			]
		},
		{
			"name":"Female_Ranger_Body_Belt_1",
			"primitives":[
				{
					"attributes":{
						"POSITION":68,
						"NORMAL":69,
						"TEXCOORD_0":70,
						"COLOR_0":71,
						"COLOR_1":72,
						"COLOR_2":73,
						"COLOR_3":74,
						"JOINTS_0":75,
						"WEIGHTS_0":76
					},
					"indices":77,
					"material":2
				}
			]
		},
		{
			"name":"Female_Ranger_Body_Belt_2",
			"primitives":[
				{
					"attributes":{
						"POSITION":78,
						"NORMAL":79,
						"TEXCOORD_0":80,
						"COLOR_0":81,
						"COLOR_1":82,
						"COLOR_2":83,
						"JOINTS_0":84,
						"WEIGHTS_0":85
					},
					"indices":86,
					"material":2
				}
			]
		},
		{
			"name":"Female_Ranger_Feet",
			"primitives":[
				{
					"attributes":{
						"POSITION":87,
						"NORMAL":88,
						"TEXCOORD_0":89,
						"COLOR_0":90,
						"COLOR_1":91,
						"COLOR_2":92,
						"JOINTS_0":93,
						"WEIGHTS_0":94
					},
					"indices":95,
					"material":2
				}
			]
		},
		{
			"name":"Female_Ranger_Head_Hood",
			"primitives":[
				{
					"attributes":{
						"POSITION":96,
						"NORMAL":97,
						"TEXCOORD_0":98,
						"COLOR_0":99,
						"COLOR_1":100,
						"COLOR_2":101,
						"JOINTS_0":102,
						"WEIGHTS_0":103
					},
					"indices":104,
					"material":2
				}
			]
		},
		{
			"name":"Female_Ranger_Legs",
			"primitives":[
				{
					"attributes":{
						"POSITION":105,
						"NORMAL":106,
						"TEXCOORD_0":107,
						"COLOR_0":108,
						"COLOR_1":109,
						"COLOR_2":110,
						"JOINTS_0":111,
						"WEIGHTS_0":112
					},
					"indices":113,
					"material":2
				}
			]
		},
		{
			"name":"Superhero_Female",
			"primitives":[
				{
					"attributes":{
						"POSITION":114,
						"NORMAL":115,
						"TEXCOORD_0":116,
						"TEXCOORD_1":117,
						"TEXCOORD_2":118,
						"TEXCOORD_3":119,
						"TEXCOORD_4":120,
						"COLOR_0":121,
						"COLOR_1":122,
						"COLOR_2":123,
						"JOINTS_0":124,
						"WEIGHTS_0":125
					},
					"indices":126,
					"material":4
				}
			]
		}
	],
	"textures":[
		{
			"sampler":0,
			"source":0
		},
		{
			"sampler":0,
			"source":1
		},
		{
			"sampler":0,
			"source":2
		},
		{
			"sampler":0,
			"source":3
		},
		{
			"sampler":0,
			"source":4
		},
		{
			"sampler":0,
			"source":5
		},
		{
			"sampler":0,
			"source":6
		},
		{
			"sampler":0,
			"source":7
		},
		{
			"sampler":0,
			"source":8
		},
		{
			"sampler":0,
			"source":9
		},
		{
			"sampler":0,
			"source":10
		},
		{
			"sampler":0,
			"source":11
		},
		{
			"sampler":0,
			"source":12
		}
	],
	"images":[
		{
			"mimeType":"image/png",
			"name":"T_Hair_2_Normal",
			"uri":"textures/T_Hair_2_Normal.png"
		},
		{
			"mimeType":"image/png",
			"name":"T_Hair_2_BaseColor",
			"uri":"textures/T_Hair_2_BaseColor.png"
		},
		{
			"mimeType":"image/png",
			"name":"T_Eye_Normal_png",
			"uri":"textures/T_Eye_Normal_png.png"
		},
		{
			"mimeType":"image/png",
			"name":"T_Eye_Brown",
			"uri":"textures/T_Eye_Brown.png"
		},
		{
			"mimeType":"image/png",
			"name":"T_Ranger_Normal",
			"uri":"textures/T_Ranger_Normal.png"
		},
		{
			"mimeType":"image/png",
			"name":"T_Ranger_BaseColor",
			"uri":"textures/T_Ranger_BaseColor.png"
		},
		{
			"mimeType":"image/png",
			"name":"T_Ranger_ORM",
			"uri":"textures/T_Ranger_ORM.png"
		},
		{
			"mimeType":"image/png",
			"name":"T_Regular_Female_Normal",
			"uri":"textures/T_Regular_Female_Normal.png"
		},
		{
			"mimeType":"image/png",
			"name":"T_Regular_Female_Dark_BaseColor",
			"uri":"textures/T_Regular_Female_Dark_BaseColor.png"
		},
		{
			"mimeType":"image/png",
			"name":"T_Regular_Female_Roughness",
			"uri":"textures/T_Regular_Female_Roughness.png"
		},
		{
			"mimeType":"image/png",
			"name":"T_Superhero_Female_Normal",
			"uri":"textures/T_Superhero_Female_Normal.png"
		},
		{
			"mimeType":"image/png",
			"name":"T_Superhero_Female_Dark_BaseColor",
			"uri":"textures/T_Superhero_Female_Dark_BaseColor.png"
		},
		{
			"mimeType":"image/png",
			"name":"T_Superhero_Female_Roughness",
			"uri":"textures/T_Superhero_Female_Roughness.png"
		}
	],
	"skins":[
		{
			"inverseBindMatrices":11,
			"joints":[
				64,
				63,
				52,
				51,
				50,
				1,
				0,
				25,
				24,
				23,
				22,
				5,
				4,
				3,
				2,
				9,
				8,
				7,
				6,
				13,
				12,
				11,
				10,
				17,
				16,
				15,
				14,
				21,
				20,
				19,
				18,
				49,
				48,
				47,
				46,
				29,
				28,
				27,
				26,
				33,
				32,
				31,
				30,
				37,
				36,
				35,
				34,
				41,
				40,
				39,
				38,
				45,
				44,
				43,
				42,
				57,
				56,
				55,
				54,
				53,
				62,
				61,
				60,
				59,
				58
			],
			"name":"Armature"
		}
	],
	"accessors":[
		{
			"bufferView":0,
			"componentType":5126,
			"count":912,
			"max":[
				0.06299881637096405,
				1.68690025806427,
				0.09157125651836395
			],
			"min":[
				-0.06299881637096405,
				1.6492886543273926,
				0.05128489062190056
			],
			"type":"VEC3"
		},
		{
			"bufferView":1,
			"componentType":5126,
			"count":912,
			"type":"VEC3"
		},
		{
			"bufferView":2,
			"componentType":5126,
			"count":912,
			"type":"VEC2"
		},
		{
			"bufferView":3,
			"componentType":5126,
			"count":912,
			"type":"VEC2"
		},
		{
			"bufferView":4,
			"componentType":5126,
			"count":912,
			"type":"VEC2"
		},
		{
			"bufferView":5,
			"componentType":5126,
			"count":912,
			"type":"VEC2"
		},
		{
			"bufferView":6,
			"componentType":5126,
			"count":912,
			"type":"VEC3"
		},
		{
			"bufferView":7,
			"componentType":5123,
			"count":912,
			"normalized":true,
			"type":"VEC4"
		},
		{
			"bufferView":8,
			"componentType":5121,
			"count":912,
			"type":"VEC4"
		},
		{
			"bufferView":9,
			"componentType":5126,
			"count":912,
			"type":"VEC4"
		},
		{
			"bufferView":10,
			"componentType":5123,
			"count":4440,
			"type":"SCALAR"
		},
		{
			"bufferView":11,
			"componentType":5126,
			"count":65,
			"type":"MAT4"
		},
		{
			"bufferView":12,
			"componentType":5126,
			"count":556,
			"max":[
				0.05105403810739517,
				1.6725529432296753,
				0.07533323019742966
			],
			"min":[
				-0.05105403810739517,
				1.6395373344421387,
				0.04291463643312454
			],
			"type":"VEC3"
		},
		{
			"bufferView":13,
			"componentType":5126,
			"count":556,
			"type":"VEC3"
		},
		{
			"bufferView":14,
			"componentType":5126,
			"count":556,
			"type":"VEC2"
		},
		{
			"bufferView":15,
			"componentType":5126,
			"count":556,
			"type":"VEC2"
		},
		{
			"bufferView":16,
			"componentType":5126,
			"count":556,
			"type":"VEC2"
		},
		{
			"bufferView":17,
			"componentType":5126,
			"count":556,
			"type":"VEC2"
		},
		{
			"bufferView":18,
			"componentType":5126,
			"count":556,
			"type":"VEC3"
		},
		{
			"bufferView":19,
			"componentType":5123,
			"count":556,
			"normalized":true,
			"type":"VEC4"
		},
		{
			"bufferView":20,
			"componentType":5121,
			"count":556,
			"type":"VEC4"
		},
		{
			"bufferView":21,
			"componentType":5126,
			"count":556,
			"type":"VEC4"
		},
		{
			"bufferView":22,
			"componentType":5123,
			"count":2304,
			"type":"SCALAR"
		},
		{
			"bufferView":23,
			"componentType":5126,
			"count":1098,
			"max":[
				0.3266640603542328,
				1.5228017568588257,
				0.02576739341020584
			],
			"min":[
				0.1160663515329361,
				1.398982048034668,
				-0.1635221689939499
			],
			"type":"VEC3"
		},
		{
			"bufferView":24,
			"componentType":5126,
			"count":1098,
			"type":"VEC3"
		},
		{
			"bufferView":25,
			"componentType":5126,
			"count":1098,
			"type":"VEC2"
		},
		{
			"bufferView":26,
			"componentType":5126,
			"count":1098,
			"type":"VEC3"
		},
		{
			"bufferView":27,
			"componentType":5123,
			"count":1098,
			"normalized":true,
			"type":"VEC4"
		},
		{
			"bufferView":28,
			"componentType":5123,
			"count":1098,
			"normalized":true,
			"type":"VEC4"
		},
		{
			"bufferView":29,
			"componentType":5121,
			"count":1098,
			"type":"VEC4"
		},
		{
			"bufferView":30,
			"componentType":5126,
			"count":1098,
			"type":"VEC4"
		},
		{
			"bufferView":31,
			"componentType":5123,
			"count":4128,
			"type":"SCALAR"
		},
		{
			"bufferView":32,
			"componentType":5126,
			"count":1774,
			"max":[
				0.7480698823928833,
				1.4815278053283691,
				0.013194299302995205
			],
			"min":[
				-0.7480698823928833,
				1.3462011814117432,
				-0.10578669607639313
			],
			"type":"VEC3"
		},
		{
			"bufferView":33,
			"componentType":5126,
			"count":1774,
			"type":"VEC3"
		},
		{
			"bufferView":34,
			"componentType":5126,
			"count":1774,
			"type":"VEC2"
		},
		{
			"bufferView":35,
			"componentType":5126,
			"count":1774,
			"type":"VEC3"
		},
		{
			"bufferView":36,
			"componentType":5123,
			"count":1774,
			"normalized":true,
			"type":"VEC4"
		},
		{
			"bufferView":37,
			"componentType":5123,
			"count":1774,
			"normalized":true,
			"type":"VEC4"
		},
		{
			"bufferView":38,
			"componentType":5121,
			"count":1774,
			"type":"VEC4"
		},
		{
			"bufferView":39,
			"componentType":5126,
			"count":1774,
			"type":"VEC4"
		},
		{
			"bufferView":40,
			"componentType":5123,
			"count":9000,
			"type":"SCALAR"
		},
		{
			"bufferView":41,
			"componentType":5126,
			"count":1202,
			"max":[
				0.8319412469863892,
				1.4290999174118042,
				0.023583045229315758
			],
			"min":[
				-0.8319412469863892,
				1.3525663614273071,
				-0.09866566210985184
			],
			"type":"VEC3"
		},
		{
			"bufferView":42,
			"componentType":5126,
			"count":1202,
			"type":"VEC3"
		},
		{
			"bufferView":43,
			"componentType":5126,
			"count":1202,
			"type":"VEC2"
		},
		{
			"bufferView":44,
			"componentType":5126,
			"count":1202,
			"type":"VEC3"
		},
		{
			"bufferView":45,
			"componentType":5123,
			"count":1202,
			"normalized":true,
			"type":"VEC4"
		},
		{
			"bufferView":46,
			"componentType":5123,
			"count":1202,
			"normalized":true,
			"type":"VEC4"
		},
		{
			"bufferView":47,
			"componentType":5121,
			"count":1202,
			"type":"VEC4"
		},
		{
			"bufferView":48,
			"componentType":5126,
			"count":1202,
			"type":"VEC4"
		},
		{
			"bufferView":49,
			"componentType":5123,
			"count":5616,
			"type":"SCALAR"
		},
		{
			"bufferView":50,
			"componentType":5126,
			"count":4438,
			"max":[
				0.6893266439437866,
				1.4738922119140625,
				0.020041555166244507
			],
			"min":[
				-0.6893266439437866,
				1.35411536693573,
				-0.1129530668258667
			],
			"type":"VEC3"
		},
		{
			"bufferView":51,
			"componentType":5126,
			"count":4438,
			"type":"VEC3"
		},
		{
			"bufferView":52,
			"componentType":5126,
			"count":4438,
			"type":"VEC2"
		},
		{
			"bufferView":53,
			"componentType":5126,
			"count":4438,
			"type":"VEC3"
		},
		{
			"bufferView":54,
			"componentType":5123,
			"count":4438,
			"normalized":true,
			"type":"VEC4"
		},
		{
			"bufferView":55,
			"componentType":5123,
			"count":4438,
			"normalized":true,
			"type":"VEC4"
		},
		{
			"bufferView":56,
			"componentType":5121,
			"count":4438,
			"type":"VEC4"
		},
		{
			"bufferView":57,
			"componentType":5126,
			"count":4438,
			"type":"VEC4"
		},
		{
			"bufferView":58,
			"componentType":5123,
			"count":10908,
			"type":"SCALAR"
		},
		{
			"bufferView":59,
			"componentType":5126,
			"count":2861,
			"max":[
				0.19003860652446747,
				1.5412611961364746,
				0.16357320547103882
			],
			"min":[
				-0.19003862142562866,
				0.9188351631164551,
				-0.18152514100074768
			],
			"type":"VEC3"
		},
		{
			"bufferView":60,
			"componentType":5126,
			"count":2861,
			"type":"VEC3"
		},
		{
			"bufferView":61,
			"componentType":5126,
			"count":2861,
			"type":"VEC2"
		},
		{
			"bufferView":62,
			"componentType":5126,
			"count":2861,
			"type":"VEC3"
		},
		{
			"bufferView":63,
			"componentType":5123,
			"count":2861,
			"normalized":true,
			"type":"VEC4"
		},
		{
			"bufferView":64,
			"componentType":5123,
			"count":2861,
			"normalized":true,
			"type":"VEC4"
		},
		{
			"bufferView":65,
			"componentType":5121,
			"count":2861,
			"type":"VEC4"
		},
		{
			"bufferView":66,
			"componentType":5126,
			"count":2861,
			"type":"VEC4"
		},
		{
			"bufferView":67,
			"componentType":5123,
			"count":8886,
			"type":"SCALAR"
		},
		{
			"bufferView":68,
			"componentType":5126,
			"count":1002,
			"max":[
				0.12832114100456238,
				1.2027900218963623,
				0.1461740881204605
			],
			"min":[
				-0.11926408857107162,
				1.1571892499923706,
				-0.0820714682340622
			],
			"type":"VEC3"
		},
		{
			"bufferView":69,
			"componentType":5126,
			"count":1002,
			"type":"VEC3"
		},
		{
			"bufferView":70,
			"componentType":5126,
			"count":1002,
			"type":"VEC2"
		},
		{
			"bufferView":71,
			"componentType":5126,
			"count":1002,
			"type":"VEC3"
		},
		{
			"bufferView":72,
			"componentType":5123,
			"count":1002,
			"normalized":true,
			"type":"VEC4"
		},
		{
			"bufferView":73,
			"componentType":5123,
			"count":1002,
			"normalized":true,
			"type":"VEC4"
		},
		{
			"bufferView":74,
			"componentType":5123,
			"count":1002,
			"normalized":true,
			"type":"VEC4"
		},
		{
			"bufferView":75,
			"componentType":5121,
			"count":1002,
			"type":"VEC4"
		},
		{
			"bufferView":76,
			"componentType":5126,
			"count":1002,
			"type":"VEC4"
		},
		{
			"bufferView":77,
			"componentType":5123,
			"count":2412,
			"type":"SCALAR"
		},
		{
			"bufferView":78,
			"componentType":5126,
			"count":1029,
			"max":[
				0.12562987208366394,
				1.1635563373565674,
				0.13128112256526947
			],
			"min":[
				-0.12259617447853088,
				1.104406714439392,
				-0.08671692758798599
			],
			"type":"VEC3"
		},
		{
			"bufferView":79,
			"componentType":5126,
			"count":1029,
			"type":"VEC3"
		},
		{
			"bufferView":80,
			"componentType":5126,
			"count":1029,
			"type":"VEC2"
		},
		{
			"bufferView":81,
			"componentType":5126,
			"count":1029,
			"type":"VEC3"
		},
		{
			"bufferView":82,
			"componentType":5123,
			"count":1029,
			"normalized":true,
			"type":"VEC4"
		},
		{
			"bufferView":83,
			"componentType":5123,
			"count":1029,
			"normalized":true,
			"type":"VEC4"
		},
		{
			"bufferView":84,
			"componentType":5121,
			"count":1029,
			"type":"VEC4"
		},
		{
			"bufferView":85,
			"componentType":5126,
			"count":1029,
			"type":"VEC4"
		},
		{
			"bufferView":86,
			"componentType":5123,
			"count":2412,
			"type":"SCALAR"
		},
		{
			"bufferView":87,
			"componentType":5126,
			"count":10776,
			"max":[
				0.20106439292430878,
				0.556414783000946,
				0.16754087805747986
			],
			"min":[
				-0.20106439292430878,
				-0.003967382479459047,
				-0.1695338636636734
			],
			"type":"VEC3"
		},
		{
			"bufferView":88,
			"componentType":5126,
			"count":10776,
			"type":"VEC3"
		},
		{
			"bufferView":89,
			"componentType":5126,
			"count":10776,
			"type":"VEC2"
		},
		{
			"bufferView":90,
			"componentType":5126,
			"count":10776,
			"type":"VEC3"
		},
		{
			"bufferView":91,
			"componentType":5123,
			"count":10776,
			"normalized":true,
			"type":"VEC4"
		},
		{
			"bufferView":92,
			"componentType":5123,
			"count":10776,
			"normalized":true,
			"type":"VEC4"
		},
		{
			"bufferView":93,
			"componentType":5121,
			"count":10776,
			"type":"VEC4"
		},
		{
			"bufferView":94,
			"componentType":5126,
			"count":10776,
			"type":"VEC4"
		},
		{
			"bufferView":95,
			"componentType":5123,
			"count":27516,
			"type":"SCALAR"
		},
		{
			"bufferView":96,
			"componentType":5126,
			"count":1240,
			"max":[
				0.16386282444000244,
				1.7940789461135864,
				0.1321496069431305
			],
			"min":[
				-0.16274534165859222,
				1.4736734628677368,
				-0.20963004231452942
			],
			"type":"VEC3"
		},
		{
			"bufferView":97,
			"componentType":5126,
			"count":1240,
			"type":"VEC3"
		},
		{
			"bufferView":98,
			"componentType":5126,
			"count":1240,
			"type":"VEC2"
		},
		{
			"bufferView":99,
			"componentType":5126,
			"count":1240,
			"type":"VEC3"
		},
		{
			"bufferView":100,
			"componentType":5123,
			"count":1240,
			"normalized":true,
			"type":"VEC4"
		},
		{
			"bufferView":101,
			"componentType":5123,
			"count":1240,
			"normalized":true,
			"type":"VEC4"
		},
		{
			"bufferView":102,
			"componentType":5121,
			"count":1240,
			"type":"VEC4"
		},
		{
			"bufferView":103,
			"componentType":5126,
			"count":1240,
			"type":"VEC4"
		},
		{
			"bufferView":104,
			"componentType":5123,
			"count":6408,
			"type":"SCALAR"
		},
		{
			"bufferView":105,
			"componentType":5126,
			"count":685,
			"max":[
				0.20561082661151886,
				1.061721920967102,
				0.08544660359621048
			],
			"min":[
				-0.20561082661151886,
				0.4113798439502716,
				-0.15474148094654083
			],
			"type":"VEC3"
		},
		{
			"bufferView":106,
			"componentType":5126,
			"count":685,
			"type":"VEC3"
		},
		{
			"bufferView":107,
			"componentType":5126,
			"count":685,
			"type":"VEC2"
		},
		{
			"bufferView":108,
			"componentType":5126,
			"count":685,
			"type":"VEC3"
		},
		{
			"bufferView":109,
			"componentType":5123,
			"count":685,
			"normalized":true,
			"type":"VEC4"
		},
		{
			"bufferView":110,
			"componentType":5123,
			"count":685,
			"normalized":true,
			"type":"VEC4"
		},
		{
			"bufferView":111,
			"componentType":5121,
			"count":685,
			"type":"VEC4"
		},
		{
			"bufferView":112,
			"componentType":5126,
			"count":685,
			"type":"VEC4"
		},
		{
			"bufferView":113,
			"componentType":5123,
			"count":3612,
			"type":"SCALAR"
		},
		{
			"bufferView":114,
			"componentType":5126,
			"count":2628,
			"max":[
				0.8304151296615601,
				1.7666435241699219,
				0.11192343384027481
			],
			"min":[
				-0.8304151296615601,
				1.4200515747070312,
				-0.12398194521665573
			],
			"type":"VEC3"
		},
		{
			"bufferView":115,
			"componentType":5126,
			"count":2628,
			"type":"VEC3"
		},
		{
			"bufferView":116,
			"componentType":5126,
			"count":2628,
			"type":"VEC2"
		},
		{
			"bufferView":117,
			"componentType":5126,
			"count":2628,
			"type":"VEC2"
		},
		{
			"bufferView":118,
			"componentType":5126,
			"count":2628,
			"type":"VEC2"
		},
		{
			"bufferView":119,
			"componentType":5126,
			"count":2628,
			"type":"VEC2"
		},
		{
			"bufferView":120,
			"componentType":5126,
			"count":2628,
			"type":"VEC2"
		},
		{
			"bufferView":121,
			"componentType":5126,
			"count":2628,
			"type":"VEC3"
		},
		{
			"bufferView":122,
			"componentType":5123,
			"count":2628,
			"normalized":true,
			"type":"VEC4"
		},
		{
			"bufferView":123,
			"componentType":5123,
			"count":2628,
			"normalized":true,
			"type":"VEC4"
		},
		{
			"bufferView":124,
			"componentType":5121,
			"count":2628,
			"type":"VEC4"
		},
		{
			"bufferView":125,
			"componentType":5126,
			"count":2628,
			"type":"VEC4"
		},
		{
			"bufferView":126,
			"componentType":5123,
			"count":13548,
			"type":"SCALAR"
		}
	],
	"bufferViews":[
		{
			"buffer":0,
			"byteLength":10944,
			"byteOffset":0,
			"target":34962
		},
		{
			"buffer":0,
			"byteLength":10944,
			"byteOffset":10944,
			"target":34962
		},
		{
			"buffer":0,
			"byteLength":7296,
			"byteOffset":21888,
			"target":34962
		},
		{
			"buffer":0,
			"byteLength":7296,
			"byteOffset":29184,
			"target":34962
		},
		{
			"buffer":0,
			"byteLength":7296,
			"byteOffset":36480,
			"target":34962
		},
		{
			"buffer":0,
			"byteLength":7296,
			"byteOffset":43776,
			"target":34962
		},
		{
			"buffer":0,
			"byteLength":10944,
			"byteOffset":51072,
			"target":34962
		},
		{
			"buffer":0,
			"byteLength":7296,
			"byteOffset":62016,
			"target":34962
		},
		{
			"buffer":0,
			"byteLength":3648,
			"byteOffset":69312,
			"target":34962
		},
		{
			"buffer":0,
			"byteLength":14592,
			"byteOffset":72960,
			"target":34962
		},
		{
			"buffer":0,
			"byteLength":8880,
			"byteOffset":87552,
			"target":34963
		},
		{
			"buffer":0,
			"byteLength":4160,
			"byteOffset":96432
		},
		{
			"buffer":0,
			"byteLength":6672,
			"byteOffset":100592,
			"target":34962
		},
		{
			"buffer":0,
			"byteLength":6672,
			"byteOffset":107264,
			"target":34962
		},
		{
			"buffer":0,
			"byteLength":4448,
			"byteOffset":113936,
			"target":34962
		},
		{
			"buffer":0,
			"byteLength":4448,
			"byteOffset":118384,
			"target":34962
		},
		{
			"buffer":0,
			"byteLength":4448,
			"byteOffset":122832,
			"target":34962
		},
		{
			"buffer":0,
			"byteLength":4448,
			"byteOffset":127280,
			"target":34962
		},
		{
			"buffer":0,
			"byteLength":6672,
			"byteOffset":131728,
			"target":34962
		},
		{
			"buffer":0,
			"byteLength":4448,
			"byteOffset":138400,
			"target":34962
		},
		{
			"buffer":0,
			"byteLength":2224,
			"byteOffset":142848,
			"target":34962
		},
		{
			"buffer":0,
			"byteLength":8896,
			"byteOffset":145072,
			"target":34962
		},
		{
			"buffer":0,
			"byteLength":4608,
			"byteOffset":153968,
			"target":34963
		},
		{
			"buffer":0,
			"byteLength":13176,
			"byteOffset":158576,
			"target":34962
		},
		{
			"buffer":0,
			"byteLength":13176,
			"byteOffset":171752,
			"target":34962
		},
		{
			"buffer":0,
			"byteLength":8784,
			"byteOffset":184928,
			"target":34962
		},
		{
			"buffer":0,
			"byteLength":13176,
			"byteOffset":193712,
			"target":34962
		},
		{
			"buffer":0,
			"byteLength":8784,
			"byteOffset":206888,
			"target":34962
		},
		{
			"buffer":0,
			"byteLength":8784,
			"byteOffset":215672,
			"target":34962
		},
		{
			"buffer":0,
			"byteLength":4392,
			"byteOffset":224456,
			"target":34962
		},
		{
			"buffer":0,
			"byteLength":17568,
			"byteOffset":228848,
			"target":34962
		},
		{
			"buffer":0,
			"byteLength":8256,
			"byteOffset":246416,
			"target":34963
		},
		{
			"buffer":0,
			"byteLength":21288,
			"byteOffset":254672,
			"target":34962
		},
		{
			"buffer":0,
			"byteLength":21288,
			"byteOffset":275960,
			"target":34962
		},
		{
			"buffer":0,
			"byteLength":14192,
			"byteOffset":297248,
			"target":34962
		},
		{
			"buffer":0,
			"byteLength":21288,
			"byteOffset":311440,
			"target":34962
		},
		{
			"buffer":0,
			"byteLength":14192,
			"byteOffset":332728,
			"target":34962
		},
		{
			"buffer":0,
			"byteLength":14192,
			"byteOffset":346920,
			"target":34962
		},
		{
			"buffer":0,
			"byteLength":7096,
			"byteOffset":361112,
			"target":34962
		},
		{
			"buffer":0,
			"byteLength":28384,
			"byteOffset":368208,
			"target":34962
		},
		{
			"buffer":0,
			"byteLength":18000,
			"byteOffset":396592,
			"target":34963
		},
		{
			"buffer":0,
			"byteLength":14424,
			"byteOffset":414592,
			"target":34962
		},
		{
			"buffer":0,
			"byteLength":14424,
			"byteOffset":429016,
			"target":34962
		},
		{
			"buffer":0,
			"byteLength":9616,
			"byteOffset":443440,
			"target":34962
		},
		{
			"buffer":0,
			"byteLength":14424,
			"byteOffset":453056,
			"target":34962
		},
		{
			"buffer":0,
			"byteLength":9616,
			"byteOffset":467480,
			"target":34962
		},
		{
			"buffer":0,
			"byteLength":9616,
			"byteOffset":477096,
			"target":34962
		},
		{
			"buffer":0,
			"byteLength":4808,
			"byteOffset":486712,
			"target":34962
		},
		{
			"buffer":0,
			"byteLength":19232,
			"byteOffset":491520,
			"target":34962
		},
		{
			"buffer":0,
			"byteLength":11232,
			"byteOffset":510752,
			"target":34963
		},
		{
			"buffer":0,
			"byteLength":53256,
			"byteOffset":521984,
			"target":34962
		},
		{
			"buffer":0,
			"byteLength":53256,
			"byteOffset":575240,
			"target":34962
		},
		{
			"buffer":0,
			"byteLength":35504,
			"byteOffset":628496,
			"target":34962
		},
		{
			"buffer":0,
			"byteLength":53256,
			"byteOffset":664000,
			"target":34962
		},
		{
			"buffer":0,
			"byteLength":35504,
			"byteOffset":717256,
			"target":34962
		},
		{
			"buffer":0,
			"byteLength":35504,
			"byteOffset":752760,
			"target":34962
		},
		{
			"buffer":0,
			"byteLength":17752,
			"byteOffset":788264,
			"target":34962
		},
		{
			"buffer":0,
			"byteLength":71008,
			"byteOffset":806016,
			"target":34962
		},
		{
			"buffer":0,
			"byteLength":21816,
			"byteOffset":877024,
			"target":34963
		},
		{
			"buffer":0,
			"byteLength":34332,
			"byteOffset":898840,
			"target":34962
		},
		{
			"buffer":0,
			"byteLength":34332,
			"byteOffset":933172,
			"target":34962
		},
		{
			"buffer":0,
			"byteLength":22888,
			"byteOffset":967504,
			"target":34962
		},
		{
			"buffer":0,
			"byteLength":34332,
			"byteOffset":990392,
			"target":34962
		},
		{
			"buffer":0,
			"byteLength":22888,
			"byteOffset":1024724,
			"target":34962
		},
		{
			"buffer":0,
			"byteLength":22888,
			"byteOffset":1047612,
			"target":34962
		},
		{
			"buffer":0,
			"byteLength":11444,
			"byteOffset":1070500,
			"target":34962
		},
		{
			"buffer":0,
			"byteLength":45776,
			"byteOffset":1081944,
			"target":34962
		},
		{
			"buffer":0,
			"byteLength":17772,
			"byteOffset":1127720,
			"target":34963
		},
		{
			"buffer":0,
			"byteLength":12024,
			"byteOffset":1145492,
			"target":34962
		},
		{
			"buffer":0,
			"byteLength":12024,
			"byteOffset":1157516,
			"target":34962
		},
		{
			"buffer":0,
			"byteLength":8016,
			"byteOffset":1169540,
			"target":34962
		},
		{
			"buffer":0,
			"byteLength":12024,
			"byteOffset":1177556,
			"target":34962
		},
		{
			"buffer":0,
			"byteLength":8016,
			"byteOffset":1189580,
			"target":34962
		},
		{
			"buffer":0,
			"byteLength":8016,
			"byteOffset":1197596,
			"target":34962
		},
		{
			"buffer":0,
			"byteLength":8016,
			"byteOffset":1205612,
			"target":34962
		},
		{
			"buffer":0,
			"byteLength":4008,
			"byteOffset":1213628,
			"target":34962
		},
		{
			"buffer":0,
			"byteLength":16032,
			"byteOffset":1217636,
			"target":34962
		},
		{
			"buffer":0,
			"byteLength":4824,
			"byteOffset":1233668,
			"target":34963
		},
		{
			"buffer":0,
			"byteLength":12348,
			"byteOffset":1238492,
			"target":34962
		},
		{
			"buffer":0,
			"byteLength":12348,
			"byteOffset":1250840,
			"target":34962
		},
		{
			"buffer":0,
			"byteLength":8232,
			"byteOffset":1263188,
			"target":34962
		},
		{
			"buffer":0,
			"byteLength":12348,
			"byteOffset":1271420,
			"target":34962
		},
		{
			"buffer":0,
			"byteLength":8232,
			"byteOffset":1283768,
			"target":34962
		},
		{
			"buffer":0,
			"byteLength":8232,
			"byteOffset":1292000,
			"target":34962
		},
		{
			"buffer":0,
			"byteLength":4116,
			"byteOffset":1300232,
			"target":34962
		},
		{
			"buffer":0,
			"byteLength":16464,
			"byteOffset":1304348,
			"target":34962
		},
		{
			"buffer":0,
			"byteLength":4824,
			"byteOffset":1320812,
			"target":34963
		},
		{
			"buffer":0,
			"byteLength":129312,
			"byteOffset":1325636,
			"target":34962
		},
		{
			"buffer":0,
			"byteLength":129312,
			"byteOffset":1454948,
			"target":34962
		},
		{
			"buffer":0,
			"byteLength":86208,
			"byteOffset":1584260,
			"target":34962
		},
		{
			"buffer":0,
			"byteLength":129312,
			"byteOffset":1670468,
			"target":34962
		},
		{
			"buffer":0,
			"byteLength":86208,
			"byteOffset":1799780,
			"target":34962
		},
		{
			"buffer":0,
			"byteLength":86208,
			"byteOffset":1885988,
			"target":34962
		},
		{
			"buffer":0,
			"byteLength":43104,
			"byteOffset":1972196,
			"target":34962
		},
		{
			"buffer":0,
			"byteLength":172416,
			"byteOffset":2015300,
			"target":34962
		},
		{
			"buffer":0,
			"byteLength":55032,
			"byteOffset":2187716,
			"target":34963
		},
		{
			"buffer":0,
			"byteLength":14880,
			"byteOffset":2242748,
			"target":34962
		},
		{
			"buffer":0,
			"byteLength":14880,
			"byteOffset":2257628,
			"target":34962
		},
		{
			"buffer":0,
			"byteLength":9920,
			"byteOffset":2272508,
			"target":34962
		},
		{
			"buffer":0,
			"byteLength":14880,
			"byteOffset":2282428,
			"target":34962
		},
		{
			"buffer":0,
			"byteLength":9920,
			"byteOffset":2297308,
			"target":34962
		},
		{
			"buffer":0,
			"byteLength":9920,
			"byteOffset":2307228,
			"target":34962
		},
		{
			"buffer":0,
			"byteLength":4960,
			"byteOffset":2317148,
			"target":34962
		},
		{
			"buffer":0,
			"byteLength":19840,
			"byteOffset":2322108,
			"target":34962
		},
		{
			"buffer":0,
			"byteLength":12816,
			"byteOffset":2341948,
			"target":34963
		},
		{
			"buffer":0,
			"byteLength":8220,
			"byteOffset":2354764,
			"target":34962
		},
		{
			"buffer":0,
			"byteLength":8220,
			"byteOffset":2362984,
			"target":34962
		},
		{
			"buffer":0,
			"byteLength":5480,
			"byteOffset":2371204,
			"target":34962
		},
		{
			"buffer":0,
			"byteLength":8220,
			"byteOffset":2376684,
			"target":34962
		},
		{
			"buffer":0,
			"byteLength":5480,
			"byteOffset":2384904,
			"target":34962
		},
		{
			"buffer":0,
			"byteLength":5480,
			"byteOffset":2390384,
			"target":34962
		},
		{
			"buffer":0,
			"byteLength":2740,
			"byteOffset":2395864,
			"target":34962
		},
		{
			"buffer":0,
			"byteLength":10960,
			"byteOffset":2398604,
			"target":34962
		},
		{
			"buffer":0,
			"byteLength":7224,
			"byteOffset":2409564,
			"target":34963
		},
		{
			"buffer":0,
			"byteLength":31536,
			"byteOffset":2416788,
			"target":34962
		},
		{
			"buffer":0,
			"byteLength":31536,
			"byteOffset":2448324,
			"target":34962
		},
		{
			"buffer":0,
			"byteLength":21024,
			"byteOffset":2479860,
			"target":34962
		},
		{
			"buffer":0,
			"byteLength":21024,
			"byteOffset":2500884,
			"target":34962
		},
		{
			"buffer":0,
			"byteLength":21024,
			"byteOffset":2521908,
			"target":34962
		},
		{
			"buffer":0,
			"byteLength":21024,
			"byteOffset":2542932,
			"target":34962
		},
		{
			"buffer":0,
			"byteLength":21024,
			"byteOffset":2563956,
			"target":34962
		},
		{
			"buffer":0,
			"byteLength":31536,
			"byteOffset":2584980,
			"target":34962
		},
		{
			"buffer":0,
			"byteLength":21024,
			"byteOffset":2616516,
			"target":34962
		},
		{
			"buffer":0,
			"byteLength":21024,
			"byteOffset":2637540,
			"target":34962
		},
		{
			"buffer":0,
			"byteLength":10512,
			"byteOffset":2658564,
			"target":34962
		},
		{
			"buffer":0,
			"byteLength":42048,
			"byteOffset":2669076,
			"target":34962
		},
		{
			"buffer":0,
			"byteLength":27096,
			"byteOffset":2711124,
			"target":34963
		}
	],
	"samplers":[
		{
			"magFilter":9729,
			"minFilter":9987
		}
	],
	"buffers":[
		{
			"byteLength":2738220,
			"uri":"hero_f.bin"
		}
	]
}
