{
	"asset":{
		"generator":"Khronos glTF Blender I/O v4.5.51",
		"version":"2.0"
	},
	"scene":0,
	"scenes":[
		{
			"name":"Scene",
			"nodes":[
				74
			]
		}
	],
	"nodes":[
		{
			"name":"Head",
			"rotation":[
				-0.13207001984119415,
				-2.3796486559035657e-08,
				-5.630572008641366e-09,
				0.991240382194519
			],
			"scale":[
				1,
				0.9999998211860657,
				0.9999998807907104
			],
			"translation":[
				2.316609699752094e-16,
				0.08285234123468399,
				5.587935447692871e-09
			]
		},
		{
			"children":[
				0
			],
			"name":"neck_01",
			"rotation":[
				0.2572590708732605,
				3.399296621964254e-09,
				1.6238789868339154e-08,
				0.9663425087928772
			],
			"scale":[
				1,
				0.9999999403953552,
				0.9999999403953552
			],
			"translation":[
				3.895396951238226e-15,
				0.21509291231632233,
				-4.842877388000488e-08
			]
		},
		{
			"name":"index_04_leaf_l",
			"rotation":[
				4.6566056566277325e-10,
				-1,
				-1.2330504252735554e-15,
				3.65177675121231e-06
			],
			"translation":[
				4.925823304802179e-09,
				0.02411002293229103,
				-7.285947845048213e-08
			]
		},
		{
			"children":[
				2
			],
			"name":"index_03_l",
			"rotation":[
				-1.4012526694529015e-09,
				2.5967006322957786e-12,
				-0.00018567594815976918,
				1
			],
			"scale":[
				0.9999999403953552,
				0.9999999403953552,
				1
			],
			"translation":[
				1.2005330063402653e-09,
				0.02791140228509903,
				4.394145491914969e-08
			]
		},
		{
			"children":[
				3
			],
			"name":"index_02_l",
			"rotation":[
				-6.64389077087435e-09,
				-1.2160920448422985e-07,
				-0.0005329587147571146,
				0.9999998807907104
			],
			"scale":[
				1,
				1.0000001192092896,
				1
			],
			"translation":[
				2.7557689463719726e-09,
				0.03261229768395424,
				1.546365240301384e-07
			]
		},
		{
			"children":[
				4
			],
			"name":"index_01_l",
			"rotation":[
				-0.009757909923791885,
				0.7070369720458984,
				-0.00975783821195364,
				0.7070419788360596
			],
			"scale":[
				1.0000001192092896,
				1.0000001192092896,
				1
			],
			"translation":[
				0.009400003589689732,
				0.11500020325183868,
				0.0325000025331974
			]
		},
		{
			"name":"middle_04_leaf_l",
			"rotation":[
				9.313215754147564e-10,
				-1,
				2.85631571563319e-14,
				3.532567461661529e-06
			],
			"translation":[
				5.451511242426932e-09,
				0.03051987662911415,
				1.3392468645179179e-07
			]
		},
		{
			"children":[
				6
			],
			"name":"middle_03_l",
			"rotation":[
				-1.0714404474754247e-08,
				1.1529012119981807e-11,
				-0.001419717213138938,
				0.9999989867210388
			],
			"scale":[
				0.9999998807907104,
				0.9999999403953552,
				1
			],
			"translation":[
				1.7271304386667907e-09,
				0.03011678159236908,
				1.1538836020008603e-07
			]
		},
		{
			"children":[
				7
			],
			"name":"middle_02_l",
			"rotation":[
				1.7442479460783034e-08,
				-2.419330291658639e-09,
				0.0020526961889117956,
				0.9999979138374329
			],
			"scale":[
				1,
				0.9999999403953552,
				1
			],
			"translation":[
				1.2223608791828156e-09,
				0.037526194006204605,
				2.5451171836721187e-08
			]
		},
		{
			"children":[
				8
			],
			"name":"middle_01_l",
			"rotation":[
				-0.013192475773394108,
				0.7069811224937439,
				-0.013192368671298027,
				0.7069863080978394
			],
			"scale":[
				1.0000001192092896,
				1.0000001192092896,
				1
			],
			"translation":[
				0.006999839097261429,
				0.11260005086660385,
				0.006999995559453964
			]
		},
		{
			"name":"pinky_04_leaf_l",
			"rotation":[
				-5.587936335871291e-09,
				-1,
				1.6110656103456023e-13,
				3.532567006914178e-06
			],
			"translation":[
				5.637048161588609e-09,
				0.02152322232723236,
				5.587153850683535e-08
			]
		},
		{
			"children":[
				10
			],
			"name":"pinky_03_l",
			"rotation":[
				3.5158902456089436e-09,
				-4.449330227168646e-12,
				0.0004658718535210937,
				0.9999998807907104
			],
			"scale":[
				1,
				0.9999999403953552,
				1
			],
			"translation":[
				-9.26502252696082e-09,
				0.027430787682533264,
				-5.741932795899629e-08
			]
		},
		{
			"children":[
				11
			],
			"name":"pinky_02_l",
			"rotation":[
				-1.6133402169771216e-08,
				-2.4040522905721673e-09,
				-0.001567367697134614,
				0.9999988079071045
			],
			"scale":[
				0.9999999403953552,
				0.9999999403953552,
				1
			],
			"translation":[
				-9.738869266584516e-09,
				0.03163105994462967,
				2.74287941692819e-07
			]
		},
		{
			"children":[
				12
			],
			"name":"pinky_01_l",
			"rotation":[
				-0.015652373433113098,
				0.706930935382843,
				-0.015652256086468697,
				0.7069361209869385
			],
			"scale":[
				1,
				0.9999998211860657,
				1
			],
			"translation":[
				0.008999803103506565,
				0.09510000795125961,
				-0.04250000789761543
			]
		},
		{
			"name":"ring_04_leaf_l",
			"rotation":[
				1.287553459405899e-07,
				-1,
				-5.147310529196591e-13,
				3.532567461661529e-06
			],
			"translation":[
				-4.393768904265016e-09,
				0.02910160832107067,
				1.3116917330080469e-07
			]
		},
		{
			"children":[
				14
			],
			"name":"ring_03_l",
			"rotation":[
				-2.5565711325725715e-08,
				3.5386405611292915e-11,
				-0.0033875962253659964,
				0.9999942779541016
			],
			"scale":[
				0.9999999403953552,
				0.9999999403953552,
				1
			],
			"translation":[
				-1.696480467217043e-08,
				0.028300287202000618,
				-3.1726173688184645e-08
			]
		},
		{
			"children":[
				15
			],
			"name":"ring_02_l",
			"rotation":[
				1.7292963505610714e-08,
				-2.470501581086637e-09,
				0.002399682765826583,
				0.9999971389770508
			],
			"translation":[
				-5.220499588176608e-09,
				0.036001428961753845,
				-1.219700038745941e-07
			]
		},
		{
			"children":[
				16
			],
			"name":"ring_01_l",
			"rotation":[
				-0.002946246648207307,
				0.7070980072021484,
				-0.0029462245292961597,
				0.7071032524108887
			],
			"scale":[
				1.0000001192092896,
				1.0000001192092896,
				1
			],
			"translation":[
				0.007300002500414848,
				0.10620018094778061,
				-0.02040000632405281
			]
		},
		{
			"name":"thumb_04_leaf_l",
			"rotation":[
				-7.214121922061167e-08,
				0.4282083809375763,
				6.235062244286382e-08,
				0.9036800265312195
			],
			"scale":[
				1,
				1,
				0.9999999403953552
			],
			"translation":[
				-2.018932718783617e-07,
				0.03459959104657173,
				3.026798367500305e-08
			]
		},
		{
			"children":[
				18
			],
			"name":"thumb_03_l",
			"rotation":[
				-0.0003725198039319366,
				2.6516621801420115e-05,
				0.00011506584996823221,
				0.9999999403953552
			],
			"scale":[
				1,
				1,
				0.9999999403953552
			],
			"translation":[
				-1.696753315627575e-07,
				0.039227936416864395,
				-8.009374141693115e-08
			]
		},
		{
			"children":[
				19
			],
			"name":"thumb_02_l",
			"rotation":[
				0.000855200516525656,
				3.451483280514367e-05,
				-0.0004895075690001249,
				0.9999995231628418
			],
			"scale":[
				1,
				0.9999998807907104,
				0.9999999403953552
			],
			"translation":[
				-1.8114224076271057e-07,
				0.03956567123532295,
				3.166496753692627e-08
			]
		},
		{
			"children":[
				20
			],
			"name":"thumb_01_l",
			"rotation":[
				0.3009933531284332,
				0.9291351437568665,
				0.2102016806602478,
				0.04388761147856712
			],
			"scale":[
				1,
				1.0000001192092896,
				1
			],
			"translation":[
				0.02139996737241745,
				0.027700025588274002,
				0.027399970218539238
			]
		},
		{
			"children":[
				5,
				9,
				13,
				17,
				21
			],
			"name":"hand_l",
			"rotation":[
				-0.015807535499334335,
				-1.191952605950064e-06,
				-1.576632691069335e-08,
				0.9998750686645508
			],
			"scale":[
				1,
				1,
				0.9999999403953552
			],
			"translation":[
				1.9040767540445813e-07,
				0.24042010307312012,
				-3.796913006226532e-09
			]
		},
		{
			"children":[
				22
			],
			"name":"lowerarm_l",
			"rotation":[
				0.030938155949115753,
				4.255044041201472e-05,
				-1.2614077604666818e-06,
				0.9995213150978088
			],
			"translation":[
				-2.809485977195436e-07,
				0.2511149048805237,
				-6.3810148276388645e-09
			]
		},
		{
			"children":[
				23
			],
			"name":"upperarm_l",
			"rotation":[
				0.16515181958675385,
				0.6876330971717834,
				-0.16469810903072357,
				0.6875755786895752
			],
			"scale":[
				0.9999998807907104,
				0.9999999403953552,
				0.9999999403953552
			],
			"translation":[
				-0.009641076438128948,
				0.18830478191375732,
				-0.0396718755364418
			]
		},
		{
			"children":[
				24
			],
			"name":"clavicle_l",
			"rotation":[
				-0.5359423756599426,
				-0.3172529935836792,
				-0.39895111322402954,
				0.673018753528595
			],
			"scale":[
				0.9999997615814209,
				0.9999998807907104,
				1
			],
			"translation":[
				0.03139999881386757,
				0.17371778190135956,
				0.06732846796512604
			]
		},
		{
			"name":"index_04_leaf_r",
			"rotation":[
				-4.226860001740147e-15,
				1,
				-4.266467262353758e-15,
				3.532567461661529e-06
			],
			"translation":[
				-5.11226971866563e-09,
				0.02411005087196827,
				4.866156189109461e-08
			]
		},
		{
			"children":[
				26
			],
			"name":"index_03_r",
			"rotation":[
				-1.3567817980231212e-09,
				-1.3282486222010448e-11,
				0.00018567685037851334,
				1
			],
			"translation":[
				-2.318301994819194e-09,
				0.027911368757486343,
				4.632947536720167e-08
			]
		},
		{
			"children":[
				27
			],
			"name":"index_02_r",
			"rotation":[
				-6.580041400638947e-09,
				1.890613221533499e-09,
				0.0005329605774022639,
				0.9999998807907104
			],
			"scale":[
				1,
				0.9999999403953552,
				1
			],
			"translation":[
				-3.234163159504533e-09,
				0.032612383365631104,
				3.5427277111921285e-08
			]
		},
		{
			"children":[
				28
			],
			"name":"index_01_r",
			"rotation":[
				-0.009757907129824162,
				-0.7070369720458984,
				0.009757835417985916,
				0.7070419788360596
			],
			"scale":[
				1.0000001192092896,
				1.0000001192092896,
				1
			],
			"translation":[
				-0.00939988438040018,
				0.11500023305416107,
				0.03249999135732651
			]
		},
		{
			"name":"middle_04_leaf_r",
			"rotation":[
				1.8626413744726733e-09,
				1,
				-6.206578016831367e-15,
				3.532567006914178e-06
			],
			"scale":[
				1,
				0.9999997019767761,
				1
			],
			"translation":[
				-2.485649019945413e-09,
				0.030519908294081688,
				1.4104176671025925e-07
			]
		},
		{
			"children":[
				30
			],
			"name":"middle_03_r",
			"rotation":[
				-1.0373658376749972e-08,
				-9.610966883455418e-11,
				0.001419717213138938,
				0.9999989867210388
			],
			"scale":[
				0.9999998807907104,
				0.9999999403953552,
				1
			],
			"translation":[
				1.2378222891129553e-09,
				0.03011663258075714,
				1.230897055393143e-07
			]
		},
		{
			"children":[
				31
			],
			"name":"middle_02_r",
			"rotation":[
				1.6951545944721147e-08,
				1.6612800024518037e-09,
				-0.0020526933949440718,
				0.9999979138374329
			],
			"translation":[
				5.675246939063072e-10,
				0.03752622380852699,
				3.228669243071636e-08
			]
		},
		{
			"children":[
				32
			],
			"name":"middle_01_r",
			"rotation":[
				-0.01319247018545866,
				-0.7069811820983887,
				0.013192367739975452,
				0.7069862484931946
			],
			"scale":[
				1,
				0.9999998807907104,
				1
			],
			"translation":[
				-0.006999839097261429,
				0.11260007321834564,
				0.006999983452260494
			]
		},
		{
			"name":"pinky_04_leaf_r",
			"rotation":[
				6.146728992462158e-08,
				1,
				4.39628260011371e-13,
				3.532567461661529e-06
			],
			"translation":[
				-3.319655661471188e-10,
				0.02152319811284542,
				7.307136229428579e-08
			]
		},
		{
			"children":[
				34
			],
			"name":"pinky_03_r",
			"rotation":[
				3.402990556011787e-09,
				2.968736714792364e-11,
				-0.0004658029065467417,
				0.9999998807907104
			],
			"translation":[
				3.394234227016568e-09,
				0.027430810034275055,
				-4.040606427224702e-08
			]
		},
		{
			"children":[
				35
			],
			"name":"pinky_02_r",
			"rotation":[
				-1.575889818639098e-08,
				1.4531997827305076e-09,
				0.0015674848109483719,
				0.9999988079071045
			],
			"translation":[
				-1.0759322321973741e-09,
				0.031631115823984146,
				2.917738868291053e-07
			]
		},
		{
			"children":[
				36
			],
			"name":"pinky_01_r",
			"rotation":[
				-0.015652280300855637,
				-0.7069309949874878,
				0.015652166679501534,
				0.7069360613822937
			],
			"translation":[
				-0.008999803103506565,
				0.09510009735822678,
				-0.04250000789761543
			]
		},
		{
			"name":"ring_04_leaf_r",
			"rotation":[
				-4.125082640380438e-15,
				1,
				4.642037012485105e-16,
				3.651776296464959e-06
			],
			"scale":[
				1,
				0.9999997019767761,
				1
			],
			"translation":[
				-5.85168891120702e-09,
				0.029101554304361343,
				1.1954313094975078e-08
			]
		},
		{
			"children":[
				38
			],
			"name":"ring_03_r",
			"rotation":[
				-2.556664746578008e-08,
				-2.2959813217315883e-10,
				0.0033875980880111456,
				0.9999942779541016
			],
			"translation":[
				1.8317223293706775e-09,
				0.028300292789936066,
				8.74447394494382e-08
			]
		},
		{
			"children":[
				39
			],
			"name":"ring_02_r",
			"rotation":[
				1.729386056581461e-08,
				2.6901225691489117e-09,
				-0.0023997097741812468,
				0.9999971389770508
			],
			"translation":[
				-1.5370460459962487e-09,
				0.03600143641233444,
				-2.41180458715462e-07
			]
		},
		{
			"children":[
				40
			],
			"name":"ring_01_r",
			"rotation":[
				-0.0029461728408932686,
				-0.7070980072021484,
				0.0029461511876434088,
				0.7071033120155334
			],
			"translation":[
				-0.007300002500414848,
				0.106200210750103,
				-0.020400015637278557
			]
		},
		{
			"name":"thumb_04_leaf_r",
			"rotation":[
				-6.595768553552261e-08,
				-0.4282083213329315,
				3.710119855782068e-08,
				0.9036800265312195
			],
			"scale":[
				1,
				0.9999999403953552,
				1
			],
			"translation":[
				3.614695742726326e-08,
				0.034599702805280685,
				1.1734664440155029e-07
			]
		},
		{
			"children":[
				42
			],
			"name":"thumb_03_r",
			"rotation":[
				-0.0003729184390977025,
				-2.653245610417798e-05,
				-0.00011405024997657165,
				0.9999999403953552
			],
			"scale":[
				1,
				0.9999998807907104,
				0.9999997615814209
			],
			"translation":[
				-1.47323589771986e-07,
				0.03922764211893082,
				6.51925802230835e-09
			]
		},
		{
			"children":[
				43
			],
			"name":"thumb_02_r",
			"rotation":[
				0.0008556885295547545,
				-3.444218964432366e-05,
				0.0004886647220700979,
				0.9999995231628418
			],
			"scale":[
				1,
				0.9999999403953552,
				0.9999998807907104
			],
			"translation":[
				-1.1594966053962708e-07,
				0.039565395563840866,
				-3.306195139884949e-08
			]
		},
		{
			"children":[
				44
			],
			"name":"thumb_01_r",
			"rotation":[
				0.3009929656982422,
				-0.9291353225708008,
				-0.21020172536373138,
				0.043887604027986526
			],
			"scale":[
				1,
				1.0000001192092896,
				0.9999999403953552
			],
			"translation":[
				-0.0213998481631279,
				0.027699992060661316,
				0.02739991620182991
			]
		},
		{
			"children":[
				29,
				33,
				37,
				41,
				45
			],
			"name":"hand_r",
			"rotation":[
				-0.015807529911398888,
				1.2515424714365508e-06,
				1.6708808558973942e-08,
				0.9998750686645508
			],
			"scale":[
				1,
				0.9999998807907104,
				0.9999999403953552
			],
			"translation":[
				3.764457900956586e-08,
				0.2404201626777649,
				-2.2873791749589145e-10
			]
		},
		{
			"children":[
				46
			],
			"name":"lowerarm_r",
			"rotation":[
				0.030938122421503067,
				-4.2639665480237454e-05,
				1.253491632269288e-06,
				0.9995213150978088
			],
			"translation":[
				2.9067484774714103e-07,
				0.2511149048805237,
				8.731149137020111e-10
			]
		},
		{
			"children":[
				47
			],
			"name":"upperarm_r",
			"rotation":[
				0.16515187919139862,
				-0.6876330375671387,
				0.16469812393188477,
				0.68757563829422
			],
			"scale":[
				0.9999998807907104,
				0.9999997615814209,
				0.9999998211860657
			],
			"translation":[
				0.009641064330935478,
				0.18830478191375732,
				-0.03967174515128136
			]
		},
		{
			"children":[
				48
			],
			"name":"clavicle_r",
			"rotation":[
				-0.5359424352645874,
				0.3172529935836792,
				0.39895111322402954,
				0.673018753528595
			],
			"scale":[
				0.9999998807907104,
				0.9999998807907104,
				0.9999998807907104
			],
			"translation":[
				-0.031400006264448166,
				0.17371778190135956,
				0.06732846051454544
			]
		},
		{
			"children":[
				1,
				25,
				49
			],
			"name":"spine_03",
			"rotation":[
				-0.12418895214796066,
				-6.394203211357308e-08,
				-1.540507987840556e-08,
				0.992258608341217
			],
			"scale":[
				1,
				0.9999999403953552,
				1
			],
			"translation":[
				7.213073386735762e-15,
				0.13313379883766174,
				-3.585591912269592e-08
			]
		},
		{
			"children":[
				50
			],
			"name":"spine_02",
			"rotation":[
				-0.03958539292216301,
				6.066800040116505e-08,
				-5.057856800050331e-09,
				0.9992161989212036
			],
			"translation":[
				8.606587427603066e-16,
				0.10634986311197281,
				-6.28642737865448e-09
			]
		},
		{
			"children":[
				51
			],
			"name":"spine_01",
			"rotation":[
				-0.09185613691806793,
				-4.080497717495746e-08,
				-9.923536659073307e-09,
				0.9957723021507263
			],
			"translation":[
				9.225834580615846e-15,
				0.12809231877326965,
				-5.681067705154419e-08
			]
		},
		{
			"name":"ball_leaf_l",
			"rotation":[
				-1.4901155864777138e-08,
				-1.0219596191518576e-07,
				-1.5228389253749727e-15,
				1
			],
			"translation":[
				-1.0557273277811419e-08,
				0.0788998231291771,
				7.835847526393991e-10
			]
		},
		{
			"children":[
				53
			],
			"name":"ball_l",
			"rotation":[
				9.1912717437026e-08,
				0.9731196165084839,
				-0.23030045628547668,
				1.8947336855035246e-07
			],
			"scale":[
				1,
				0.9999999403953552,
				1
			],
			"translation":[
				2.750892846847819e-10,
				0.15907368063926697,
				-2.536358323368404e-08
			]
		},
		{
			"children":[
				54
			],
			"name":"foot_l",
			"rotation":[
				-0.5721680521965027,
				2.3739059429317422e-07,
				-1.7414150477179646e-07,
				0.8201364278793335
			],
			"scale":[
				1,
				0.9999999403953552,
				0.9999999403953552
			],
			"translation":[
				-1.6341214603698972e-08,
				0.4587884247303009,
				-4.237882045288188e-09
			]
		},
		{
			"children":[
				55
			],
			"name":"calf_l",
			"rotation":[
				0.055988989770412445,
				-7.941360458119107e-09,
				-3.810356474787113e-09,
				0.998431384563446
			],
			"translation":[
				-1.4058905151159706e-08,
				0.42880013585090637,
				6.209721625793918e-11
			]
		},
		{
			"children":[
				56
			],
			"name":"thigh_l",
			"rotation":[
				0.9898310303688049,
				-1.3477942317763336e-08,
				8.943679574713315e-08,
				0.14224842190742493
			],
			"scale":[
				1,
				1,
				1.000000238418579
			],
			"translation":[
				0.09059999883174896,
				0.02317694015800953,
				0.00048784399405121803
			]
		},
		{
			"name":"ball_leaf_r",
			"rotation":[
				1.4901161193847656e-08,
				-1.0219591217719426e-07,
				1.5228375489464334e-15,
				1
			],
			"translation":[
				-3.1066960115566644e-09,
				0.0788997933268547,
				-7.835945226020158e-10
			]
		},
		{
			"children":[
				58
			],
			"name":"ball_r",
			"rotation":[
				9.191270322617129e-08,
				0.9731195569038391,
				-0.23030051589012146,
				1.8947336855035246e-07
			],
			"scale":[
				1,
				0.9999998211860657,
				0.9999997615814209
			],
			"translation":[
				2.750963901121395e-10,
				0.1590736210346222,
				-1.3751972005593416e-08
			]
		},
		{
			"children":[
				59
			],
			"name":"foot_r",
			"rotation":[
				-0.5721679329872131,
				2.3739053744975536e-07,
				-1.741414479283776e-07,
				0.8201364874839783
			],
			"scale":[
				1,
				0.9999998807907104,
				1
			],
			"translation":[
				1.346110689581792e-08,
				0.4587884545326233,
				7.031838222815168e-09
			]
		},
		{
			"children":[
				60
			],
			"name":"calf_r",
			"rotation":[
				0.05598898604512215,
				-7.941362234475946e-09,
				-3.810357807054743e-09,
				0.998431384563446
			],
			"translation":[
				-6.608325442414298e-09,
				0.42880013585090637,
				7.382456868043619e-10
			]
		},
		{
			"children":[
				61
			],
			"name":"thigh_r",
			"rotation":[
				0.9898310303688049,
				-1.3477936100514398e-08,
				8.943683837969729e-08,
				0.14224840700626373
			],
			"scale":[
				1,
				1,
				1.0000005960464478
			],
			"translation":[
				-0.09059999883174896,
				0.02317694015800953,
				0.0004878169856965542
			]
		},
		{
			"children":[
				52,
				57,
				62
			],
			"name":"pelvis",
			"rotation":[
				0.8005710244178772,
				4.4646718322383094e-08,
				5.964722049611737e-08,
				0.5992379188537598
			],
			"translation":[
				0,
				0.042999982833862305,
				0.9490999579429626
			]
		},
		{
			"children":[
				63
			],
			"name":"root",
			"rotation":[
				-0.7071067690849304,
				0,
				0,
				0.7071067690849304
			]
		},
		{
			"mesh":0,
			"name":"Eyebrows",
			"skin":0
		},
		{
			"mesh":1,
			"name":"Eyes",
			"skin":0
		},
		{
			"mesh":2,
			"name":"Hair_Beard",
			"skin":0
		},
		{
			"mesh":3,
			"name":"Hair_SimpleParted",
			"skin":0
		},
		{
			"mesh":4,
			"name":"Male_Peasant_Arms",
			"skin":0
		},
		{
			"mesh":5,
			"name":"Male_Peasant_Body",
			"skin":0
		},
		{
			"mesh":6,
			"name":"Male_Peasant_Feet",
			"skin":0
		},
		{
			"mesh":7,
			"name":"Male_Peasant_Legs",
			"skin":0
		},
		{
			"mesh":8,
			"name":"SuperHero_Male",
			"skin":0
		},
		{
			"children":[
				65,
				66,
				67,
				68,
				69,
				70,
				71,
				72,
				73,
				64
			],
			"name":"Armature"
		}
	],
	"materials":[
		{
			"doubleSided":true,
			"name":"MI_Hair_1",
			"normalTexture":{
				"index":0
			},
			"pbrMetallicRoughness":{
				"baseColorTexture":{
					"index":1
				},
				"metallicFactor":0,
				"roughnessFactor":0.8227272629737854
			}
		},
		{
			"doubleSided":true,
			"name":"MI_Eyes",
			"normalTexture":{
				"index":2
			},
			"pbrMetallicRoughness":{
				"baseColorTexture":{
					"index":3
				},
				"metallicFactor":0,
				"roughnessFactor":0.34545454382896423
			}
		},
		{
			"doubleSided":true,
			"name":"MI_Hair_1.002",
			"normalTexture":{
				"index":4
			},
			"pbrMetallicRoughness":{
				"baseColorTexture":{
					"index":5
				},
				"metallicFactor":0
			}
		},
		{
			"doubleSided":true,
			"name":"MI_Hair_1.001",
			"normalTexture":{
				"index":6
			},
			"pbrMetallicRoughness":{
				"baseColorTexture":{
					"index":7
				},
				"metallicFactor":0
			}
		},
		{
			"doubleSided":true,
			"name":"MI_Peasant",
			"normalTexture":{
				"index":8
			},
			"pbrMetallicRoughness":{
				"baseColorTexture":{
					"index":9
				},
				"metallicRoughnessTexture":{
					"index":10
				}
			}
		},
		{
			"doubleSided":true,
			"name":"MI_Regular_Male",
			"normalTexture":{
				"index":11
			},
			"pbrMetallicRoughness":{
				"baseColorTexture":{
					"index":12
				},
				"metallicFactor":0,
				"metallicRoughnessTexture":{
					"index":13
				}
			}
		},
		{
			"doubleSided":true,
			"name":"MI_Superhero_Male",
			"normalTexture":{
				"index":14
			},
			"pbrMetallicRoughness":{
				"baseColorTexture":{
					"index":15
				},
				"metallicFactor":0,
				"metallicRoughnessTexture":{
					"index":16
				}
			}
		}
	],
	"meshes":[
		{
			"name":"Face",
			"primitives":[
				{
					"attributes":{
						"POSITION":0,
						"NORMAL":1,
						"TEXCOORD_0":2,
						"TEXCOORD_1":3,
						"TEXCOORD_2":4,
						"TEXCOORD_3":5,
						"COLOR_0":6,
						"COLOR_1":7,
						"JOINTS_0":8,
						"WEIGHTS_0":9
					},
					"indices":10,
					"material":0
				}
			]
		},
		{
			"name":"Face.001",
			"primitives":[
				{
					"attributes":{
						"POSITION":12,
						"NORMAL":13,
						"TEXCOORD_0":14,
						"TEXCOORD_1":15,
						"TEXCOORD_2":16,
						"TEXCOORD_3":17,
						"COLOR_0":18,
						"COLOR_1":19,
						"JOINTS_0":20,
						"WEIGHTS_0":21
					},
					"indices":22,
					"material":1
				}
			]
		},
		{
			"name":"Plane.006",
			"primitives":[
				{
					"attributes":{
						"POSITION":23,
						"NORMAL":24,
						"TEXCOORD_0":25,
						"JOINTS_0":26,
						"WEIGHTS_0":27
					},
					"indices":28,
					"material":2
				}
			]
		},
		{
			"name":"Plane.002",
			"primitives":[
				{
					"attributes":{
						"POSITION":29,
						"NORMAL":30,
						"TEXCOORD_0":31,
						"JOINTS_0":32,
						"WEIGHTS_0":33
					},
					"indices":34,
					"material":3
				}
			]
		},
		{
			"name":"Male_Peasant_Arms",
			"primitives":[
				{
					"attributes":{
						"POSITION":35,
						"NORMAL":36,
						"TEXCOORD_0":37,
						"TEXCOORD_1":38,
						"COLOR_0":39,
						"COLOR_1":40,
						"JOINTS_0":41,
						"WEIGHTS_0":42
					},
					"indices":43,
					"material":4
				},
				{
					"attributes":{
						"POSITION":44,
						"NORMAL":45,
						"TEXCOORD_0":46,
						"TEXCOORD_1":47,
						"COLOR_0":48,
						"COLOR_1":49,
						"JOINTS_0":50,
						"WEIGHTS_0":51
					},
					"indices":52,
					"material":5
				}
			]
		},
		{
			"name":"Male_Peasant_Body",
			"primitives":[
				{
					"attributes":{
						"POSITION":53,
						"NORMAL":54,
						"TEXCOORD_0":55,
						"COLOR_0":56,
						"COLOR_1":57,
						"JOINTS_0":58,
						"WEIGHTS_0":59
					},
					"indices":60,
					"material":4
				}
			]
		},
		{
			"name":"Male_Peasant_Feet",
			"primitives":[
				{
					"attributes":{
						"POSITION":61,
						"NORMAL":62,
						"TEXCOORD_0":63,
						"COLOR_0":64,
						"COLOR_1":65,
						"JOINTS_0":66,
						"WEIGHTS_0":67
					},
					"indices":68,
					"material":4
				}
			]
		},
		{
			"name":"Male_Peasant_Legs",
			"primitives":[
				{
					"attributes":{
						"POSITION":69,
						"NORMAL":70,
						"TEXCOORD_0":71,
						"COLOR_0":72,
						"COLOR_1":73,
						"JOINTS_0":74,
						"WEIGHTS_0":75
					},
					"indices":76,
					"material":4
				}
			]
		},
		{
			"name":"Sphere.005_Retopology.004",
			"primitives":[
				{
					"attributes":{
						"POSITION":77,
						"NORMAL":78,
						"TEXCOORD_0":79,
						"TEXCOORD_1":80,
						"COLOR_0":81,
						"COLOR_1":82,
						"JOINTS_0":83,
						"WEIGHTS_0":84
					},
					"indices":85,
					"material":6
				}
			]
		}
	],
	"textures":[
		{
			"sampler":0,
			"source":0
		},
		{
			"sampler":0,
			"source":1
		},
		{
			"sampler":0,
			"source":2
		},
		{
			"sampler":0,
			"source":3
		},
		{
			"sampler":0,
			"source":4
		},
		{
			"sampler":0,
			"source":1
		},
		{
			"sampler":0,
			"source":4
		},
		{
			"sampler":0,
			"source":1
		},
		{
			"sampler":0,
			"source":5
		},
		{
			"sampler":0,
			"source":6
		},
		{
			"sampler":0,
			"source":7
		},
		{
			"sampler":0,
			"source":8
		},
		{
			"sampler":0,
			"source":9
		},
		{
			"sampler":0,
			"source":10
		},
		{
			"sampler":0,
			"source":11
		},
		{
			"sampler":0,
			"source":12
		},
		{
			"sampler":0,
			"source":13
		}
	],
	"images":[
		{
			"mimeType":"image/png",
			"name":"T_Hair_1_Normal_png",
			"uri":"textures/T_Hair_1_Normal_png.png"
		},
		{
			"mimeType":"image/png",
			"name":"T_Hair_1_BaseColor",
			"uri":"textures/T_Hair_1_BaseColor.png"
		},
		{
			"mimeType":"image/png",
			"name":"T_Eye_Normal_png",
			"uri":"textures/T_Eye_Normal_png.png"
		},
		{
			"mimeType":"image/png",
			"name":"T_Eye_Brown",
			"uri":"textures/T_Eye_Brown.png"
		},
		{
			"mimeType":"image/png",
			"name":"T_Hair_1_Normal",
			"uri":"textures/T_Hair_1_Normal.png"
		},
		{
			"mimeType":"image/png",
			"name":"T_Peasant_Normal",
			"uri":"textures/T_Peasant_Normal.png"
		},
		{
			"mimeType":"image/png",
			"name":"T_Peasant_BaseColor",
			"uri":"textures/T_Peasant_BaseColor.png"
		},
		{
			"mimeType":"image/png",
			"name":"T_Peasant_ORM",
			"uri":"textures/T_Peasant_ORM.png"
		},
		{
			"mimeType":"image/png",
			"name":"T_Regular_Male_Normal",
			"uri":"textures/T_Regular_Male_Normal.png"
		},
		{
			"mimeType":"image/png",
			"name":"T_Regular_Male_Dark_BaseColor",
			"uri":"textures/T_Regular_Male_Dark_BaseColor.png"
		},
		{
			"mimeType":"image/png",
			"name":"T_Regular_Male_Roughness",
			"uri":"textures/T_Regular_Male_Roughness.png"
		},
		{
			"mimeType":"image/png",
			"name":"T_Superhero_Male_Normal",
			"uri":"textures/T_Superhero_Male_Normal.png"
		},
		{
			"mimeType":"image/png",
			"name":"T_Superhero_Male_Dark",
			"uri":"textures/T_Superhero_Male_Dark.png"
		},
		{
			"mimeType":"image/png",
			"name":"T_Superhero_Male_Roughness",
			"uri":"textures/T_Superhero_Male_Roughness.png"
		}
	],
	"skins":[
		{
			"inverseBindMatrices":11,
			"joints":[
				64,
				63,
				52,
				51,
				50,
				1,
				0,
				25,
				24,
				23,
				22,
				5,
				4,
				3,
				2,
				9,
				8,
				7,
				6,
				13,
				12,
				11,
				10,
				17,
				16,
				15,
				14,
				21,
				20,
				19,
				18,
				49,
				48,
				47,
				46,
				29,
				28,
				27,
				26,
				33,
				32,
				31,
				30,
				37,
				36,
				35,
				34,
				41,
				40,
				39,
				38,
				45,
				44,
				43,
				42,
				57,
				56,
				55,
				54,
				53,
				62,
				61,
				60,
				59,
				58
			],
			"name":"Armature"
		}
	],
	"accessors":[
		{
			"bufferView":0,
			"componentType":5126,
			"count":646,
			"max":[
				0.062340568751096725,
				1.725467562675476,
				0.0944778323173523
			],
			"min":[
				-0.062340568751096725,
				1.6948597431182861,
				0.056921545416116714
			],
			"type":"VEC3"
		},
		{
			"bufferView":1,
			"componentType":5126,
			"count":646,
			"type":"VEC3"
		},
		{
			"bufferView":2,
			"componentType":5126,
			"count":646,
			"type":"VEC2"
		},
		{
			"bufferView":3,
			"componentType":5126,
			"count":646,
			"type":"VEC2"
		},
		{
			"bufferView":4,
			"componentType":5126,
			"count":646,
			"type":"VEC2"
		},
		{
			"bufferView":5,
			"componentType":5126,
			"count":646,
			"type":"VEC2"
		},
		{
			"bufferView":6,
			"componentType":5126,
			"count":646,
			"type":"VEC3"
		},
		{
			"bufferView":7,
			"componentType":5123,
			"count":646,
			"normalized":true,
			"type":"VEC4"
		},
		{
			"bufferView":8,
			"componentType":5121,
			"count":646,
			"type":"VEC4"
		},
		{
			"bufferView":9,
			"componentType":5126,
			"count":646,
			"type":"VEC4"
		},
		{
			"bufferView":10,
			"componentType":5123,
			"count":2952,
			"type":"SCALAR"
		},
		{
			"bufferView":11,
			"componentType":5126,
			"count":65,
			"type":"MAT4"
		},
		{
			"bufferView":12,
			"componentType":5126,
			"count":556,
			"max":[
				0.04874879866838455,
				1.7135448455810547,
				0.08063788712024689
			],
			"min":[
				-0.04874879866838455,
				1.6835993528366089,
				0.05123399570584297
			],
			"type":"VEC3"
		},
		{
			"bufferView":13,
			"componentType":5126,
			"count":556,
			"type":"VEC3"
		},
		{
			"bufferView":14,
			"componentType":5126,
			"count":556,
			"type":"VEC2"
		},
		{
			"bufferView":15,
			"componentType":5126,
			"count":556,
			"type":"VEC2"
		},
		{
			"bufferView":16,
			"componentType":5126,
			"count":556,
			"type":"VEC2"
		},
		{
			"bufferView":17,
			"componentType":5126,
			"count":556,
			"type":"VEC2"
		},
		{
			"bufferView":18,
			"componentType":5126,
			"count":556,
			"type":"VEC3"
		},
		{
			"bufferView":19,
			"componentType":5123,
			"count":556,
			"normalized":true,
			"type":"VEC4"
		},
		{
			"bufferView":20,
			"componentType":5121,
			"count":556,
			"type":"VEC4"
		},
		{
			"bufferView":21,
			"componentType":5126,
			"count":556,
			"type":"VEC4"
		},
		{
			"bufferView":22,
			"componentType":5123,
			"count":2304,
			"type":"SCALAR"
		},
		{
			"bufferView":23,
			"componentType":5126,
			"count":596,
			"max":[
				0.08075305074453354,
				1.6893516778945923,
				0.09683030843734741
			],
			"min":[
				-0.08075305074453354,
				1.5495362281799316,
				-0.008104427717626095
			],
			"type":"VEC3"
		},
		{
			"bufferView":24,
			"componentType":5126,
			"count":596,
			"type":"VEC3"
		},
		{
			"bufferView":25,
			"componentType":5126,
			"count":596,
			"type":"VEC2"
		},
		{
			"bufferView":26,
			"componentType":5121,
			"count":596,
			"type":"VEC4"
		},
		{
			"bufferView":27,
			"componentType":5126,
			"count":596,
			"type":"VEC4"
		},
		{
			"bufferView":28,
			"componentType":5123,
			"count":3102,
			"type":"SCALAR"
		},
		{
			"bufferView":29,
			"componentType":5126,
			"count":757,
			"max":[
				0.089996337890625,
				1.8397217988967896,
				0.07879605889320374
			],
			"min":[
				-0.08542495965957642,
				1.6605602502822876,
				-0.10815346240997314
			],
			"type":"VEC3"
		},
		{
			"bufferView":30,
			"componentType":5126,
			"count":757,
			"type":"VEC3"
		},
		{
			"bufferView":31,
			"componentType":5126,
			"count":757,
			"type":"VEC2"
		},
		{
			"bufferView":32,
			"componentType":5121,
			"count":757,
			"type":"VEC4"
		},
		{
			"bufferView":33,
			"componentType":5126,
			"count":757,
			"type":"VEC4"
		},
		{
			"bufferView":34,
			"componentType":5123,
			"count":3903,
			"type":"SCALAR"
		},
		{
			"bufferView":35,
			"componentType":5126,
			"count":818,
			"max":[
				0.5231516361236572,
				1.5304906368255615,
				0.029068080708384514
			],
			"min":[
				-0.5231516361236572,
				1.3801196813583374,
				-0.13984063267707825
			],
			"type":"VEC3"
		},
		{
			"bufferView":36,
			"componentType":5126,
			"count":818,
			"type":"VEC3"
		},
		{
			"bufferView":37,
			"componentType":5126,
			"count":818,
			"type":"VEC2"
		},
		{
			"bufferView":38,
			"componentType":5126,
			"count":818,
			"type":"VEC2"
		},
		{
			"bufferView":39,
			"componentType":5126,
			"count":818,
			"type":"VEC3"
		},
		{
			"bufferView":40,
			"componentType":5123,
			"count":818,
			"normalized":true,
			"type":"VEC4"
		},
		{
			"bufferView":41,
			"componentType":5121,
			"count":818,
			"type":"VEC4"
		},
		{
			"bufferView":42,
			"componentType":5126,
			"count":818,
			"type":"VEC4"
		},
		{
			"bufferView":43,
			"componentType":5123,
			"count":4224,
			"type":"SCALAR"
		},
		{
			"bufferView":44,
			"componentType":5126,
			"count":2497,
			"max":[
				0.8994147777557373,
				1.5050160884857178,
				0.015845395624637604
			],
			"min":[
				-0.8994146585464478,
				1.3667066097259521,
				-0.1302337795495987
			],
			"type":"VEC3"
		},
		{
			"bufferView":45,
			"componentType":5126,
			"count":2497,
			"type":"VEC3"
		},
		{
			"bufferView":46,
			"componentType":5126,
			"count":2497,
			"type":"VEC2"
		},
		{
			"bufferView":47,
			"componentType":5126,
			"count":2497,
			"type":"VEC2"
		},
		{
			"bufferView":48,
			"componentType":5126,
			"count":2497,
			"type":"VEC3"
		},
		{
			"bufferView":49,
			"componentType":5123,
			"count":2497,
			"normalized":true,
			"type":"VEC4"
		},
		{
			"bufferView":50,
			"componentType":5121,
			"count":2497,
			"type":"VEC4"
		},
		{
			"bufferView":51,
			"componentType":5126,
			"count":2497,
			"type":"VEC4"
		},
		{
			"bufferView":52,
			"componentType":5123,
			"count":11790,
			"type":"SCALAR"
		},
		{
			"bufferView":53,
			"componentType":5126,
			"count":3022,
			"max":[
				0.373415470123291,
				1.5586549043655396,
				0.1253526359796524
			],
			"min":[
				-0.373415470123291,
				0.9214094281196594,
				-0.18447721004486084
			],
			"type":"VEC3"
		},
		{
			"bufferView":54,
			"componentType":5126,
			"count":3022,
			"type":"VEC3"
		},
		{
			"bufferView":55,
			"componentType":5126,
			"count":3022,
			"type":"VEC2"
		},
		{
			"bufferView":56,
			"componentType":5126,
			"count":3022,
			"type":"VEC3"
		},
		{
			"bufferView":57,
			"componentType":5123,
			"count":3022,
			"normalized":true,
			"type":"VEC4"
		},
		{
			"bufferView":58,
			"componentType":5121,
			"count":3022,
			"type":"VEC4"
		},
		{
			"bufferView":59,
			"componentType":5126,
			"count":3022,
			"type":"VEC4"
		},
		{
			"bufferView":60,
			"componentType":5123,
			"count":11568,
			"type":"SCALAR"
		},
		{
			"bufferView":61,
			"componentType":5126,
			"count":1878,
			"max":[
				0.17531567811965942,
				0.4482632875442505,
				0.16754083335399628
			],
			"min":[
				-0.17531567811965942,
				-0.00396758783608675,
				-0.16245561838150024
			],
			"type":"VEC3"
		},
		{
			"bufferView":62,
			"componentType":5126,
			"count":1878,
			"type":"VEC3"
		},
		{
			"bufferView":63,
			"componentType":5126,
			"count":1878,
			"type":"VEC2"
		},
		{
			"bufferView":64,
			"componentType":5126,
			"count":1878,
			"type":"VEC3"
		},
		{
			"bufferView":65,
			"componentType":5123,
			"count":1878,
			"normalized":true,
			"type":"VEC4"
		},
		{
			"bufferView":66,
			"componentType":5121,
			"count":1878,
			"type":"VEC4"
		},
		{
			"bufferView":67,
			"componentType":5126,
			"count":1878,
			"type":"VEC4"
		},
		{
			"bufferView":68,
			"componentType":5123,
			"count":7764,
			"type":"SCALAR"
		},
		{
			"bufferView":69,
			"componentType":5126,
			"count":656,
			"max":[
				0.2114276885986328,
				1.053699254989624,
				0.07690303772687912
			],
			"min":[
				-0.2114276885986328,
				0.4030442237854004,
				-0.1517549753189087
			],
			"type":"VEC3"
		},
		{
			"bufferView":70,
			"componentType":5126,
			"count":656,
			"type":"VEC3"
		},
		{
			"bufferView":71,
			"componentType":5126,
			"count":656,
			"type":"VEC2"
		},
		{
			"bufferView":72,
			"componentType":5126,
			"count":656,
			"type":"VEC3"
		},
		{
			"bufferView":73,
			"componentType":5123,
			"count":656,
			"normalized":true,
			"type":"VEC4"
		},
		{
			"bufferView":74,
			"componentType":5121,
			"count":656,
			"type":"VEC4"
		},
		{
			"bufferView":75,
			"componentType":5126,
			"count":656,
			"type":"VEC4"
		},
		{
			"bufferView":76,
			"componentType":5123,
			"count":3336,
			"type":"SCALAR"
		},
		{
			"bufferView":77,
			"componentType":5126,
			"count":1763,
			"max":[
				0.5322098135948181,
				1.8100768327713013,
				0.11516908556222916
			],
			"min":[
				-0.5322099328041077,
				1.5009394884109497,
				-0.14148743450641632
			],
			"type":"VEC3"
		},
		{
			"bufferView":78,
			"componentType":5126,
			"count":1763,
			"type":"VEC3"
		},
		{
			"bufferView":79,
			"componentType":5126,
			"count":1763,
			"type":"VEC2"
		},
		{
			"bufferView":80,
			"componentType":5126,
			"count":1763,
			"type":"VEC2"
		},
		{
			"bufferView":81,
			"componentType":5126,
			"count":1763,
			"type":"VEC3"
		},
		{
			"bufferView":82,
			"componentType":5123,
			"count":1763,
			"normalized":true,
			"type":"VEC4"
		},
		{
			"bufferView":83,
			"componentType":5121,
			"count":1763,
			"type":"VEC4"
		},
		{
			"bufferView":84,
			"componentType":5126,
			"count":1763,
			"type":"VEC4"
		},
		{
			"bufferView":85,
			"componentType":5123,
			"count":9414,
			"type":"SCALAR"
		}
	],
	"bufferViews":[
		{
			"buffer":0,
			"byteLength":7752,
			"byteOffset":0,
			"target":34962
		},
		{
			"buffer":0,
			"byteLength":7752,
			"byteOffset":7752,
			"target":34962
		},
		{
			"buffer":0,
			"byteLength":5168,
			"byteOffset":15504,
			"target":34962
		},
		{
			"buffer":0,
			"byteLength":5168,
			"byteOffset":20672,
			"target":34962
		},
		{
			"buffer":0,
			"byteLength":5168,
			"byteOffset":25840,
			"target":34962
		},
		{
			"buffer":0,
			"byteLength":5168,
			"byteOffset":31008,
			"target":34962
		},
		{
			"buffer":0,
			"byteLength":7752,
			"byteOffset":36176,
			"target":34962
		},
		{
			"buffer":0,
			"byteLength":5168,
			"byteOffset":43928,
			"target":34962
		},
		{
			"buffer":0,
			"byteLength":2584,
			"byteOffset":49096,
			"target":34962
		},
		{
			"buffer":0,
			"byteLength":10336,
			"byteOffset":51680,
			"target":34962
		},
		{
			"buffer":0,
			"byteLength":5904,
			"byteOffset":62016,
			"target":34963
		},
		{
			"buffer":0,
			"byteLength":4160,
			"byteOffset":67920
		},
		{
			"buffer":0,
			"byteLength":6672,
			"byteOffset":72080,
			"target":34962
		},
		{
			"buffer":0,
			"byteLength":6672,
			"byteOffset":78752,
			"target":34962
		},
		{
			"buffer":0,
			"byteLength":4448,
			"byteOffset":85424,
			"target":34962
		},
		{
			"buffer":0,
			"byteLength":4448,
			"byteOffset":89872,
			"target":34962
		},
		{
			"buffer":0,
			"byteLength":4448,
			"byteOffset":94320,
			"target":34962
		},
		{
			"buffer":0,
			"byteLength":4448,
			"byteOffset":98768,
			"target":34962
		},
		{
			"buffer":0,
			"byteLength":6672,
			"byteOffset":103216,
			"target":34962
		},
		{
			"buffer":0,
			"byteLength":4448,
			"byteOffset":109888,
			"target":34962
		},
		{
			"buffer":0,
			"byteLength":2224,
			"byteOffset":114336,
			"target":34962
		},
		{
			"buffer":0,
			"byteLength":8896,
			"byteOffset":116560,
			"target":34962
		},
		{
			"buffer":0,
			"byteLength":4608,
			"byteOffset":125456,
			"target":34963
		},
		{
			"buffer":0,
			"byteLength":7152,
			"byteOffset":130064,
			"target":34962
		},
		{
			"buffer":0,
			"byteLength":7152,
			"byteOffset":137216,
			"target":34962
		},
		{
			"buffer":0,
			"byteLength":4768,
			"byteOffset":144368,
			"target":34962
		},
		{
			"buffer":0,
			"byteLength":2384,
			"byteOffset":149136,
			"target":34962
		},
		{
			"buffer":0,
			"byteLength":9536,
			"byteOffset":151520,
			"target":34962
		},
		{
			"buffer":0,
			"byteLength":6204,
			"byteOffset":161056,
			"target":34963
		},
		{
			"buffer":0,
			"byteLength":9084,
			"byteOffset":167260,
			"target":34962
		},
		{
			"buffer":0,
			"byteLength":9084,
			"byteOffset":176344,
			"target":34962
		},
		{
			"buffer":0,
			"byteLength":6056,
			"byteOffset":185428,
			"target":34962
		},
		{
			"buffer":0,
			"byteLength":3028,
			"byteOffset":191484,
			"target":34962
		},
		{
			"buffer":0,
			"byteLength":12112,
			"byteOffset":194512,
			"target":34962
		},
		{
			"buffer":0,
			"byteLength":7806,
			"byteOffset":206624,
			"target":34963
		},
		{
			"buffer":0,
			"byteLength":9816,
			"byteOffset":214432,
			"target":34962
		},
		{
			"buffer":0,
			"byteLength":9816,
			"byteOffset":224248,
			"target":34962
		},
		{
			"buffer":0,
			"byteLength":6544,
			"byteOffset":234064,
			"target":34962
		},
		{
			"buffer":0,
			"byteLength":6544,
			"byteOffset":240608,
			"target":34962
		},
		{
			"buffer":0,
			"byteLength":9816,
			"byteOffset":247152,
			"target":34962
		},
		{
			"buffer":0,
			"byteLength":6544,
			"byteOffset":256968,
			"target":34962
		},
		{
			"buffer":0,
			"byteLength":3272,
			"byteOffset":263512,
			"target":34962
		},
		{
			"buffer":0,
			"byteLength":13088,
			"byteOffset":266784,
			"target":34962
		},
		{
			"buffer":0,
			"byteLength":8448,
			"byteOffset":279872,
			"target":34963
		},
		{
			"buffer":0,
			"byteLength":29964,
			"byteOffset":288320,
			"target":34962
		},
		{
			"buffer":0,
			"byteLength":29964,
			"byteOffset":318284,
			"target":34962
		},
		{
			"buffer":0,
			"byteLength":19976,
			"byteOffset":348248,
			"target":34962
		},
		{
			"buffer":0,
			"byteLength":19976,
			"byteOffset":368224,
			"target":34962
		},
		{
			"buffer":0,
			"byteLength":29964,
			"byteOffset":388200,
			"target":34962
		},
		{
			"buffer":0,
			"byteLength":19976,
			"byteOffset":418164,
			"target":34962
		},
		{
			"buffer":0,
			"byteLength":9988,
			"byteOffset":438140,
			"target":34962
		},
		{
			"buffer":0,
			"byteLength":39952,
			"byteOffset":448128,
			"target":34962
		},
		{
			"buffer":0,
			"byteLength":23580,
			"byteOffset":488080,
			"target":34963
		},
		{
			"buffer":0,
			"byteLength":36264,
			"byteOffset":511660,
			"target":34962
		},
		{
			"buffer":0,
			"byteLength":36264,
			"byteOffset":547924,
			"target":34962
		},
		{
			"buffer":0,
			"byteLength":24176,
			"byteOffset":584188,
			"target":34962
		},
		{
			"buffer":0,
			"byteLength":36264,
			"byteOffset":608364,
			"target":34962
		},
		{
			"buffer":0,
			"byteLength":24176,
			"byteOffset":644628,
			"target":34962
		},
		{
			"buffer":0,
			"byteLength":12088,
			"byteOffset":668804,
			"target":34962
		},
		{
			"buffer":0,
			"byteLength":48352,
			"byteOffset":680892,
			"target":34962
		},
		{
			"buffer":0,
			"byteLength":23136,
			"byteOffset":729244,
			"target":34963
		},
		{
			"buffer":0,
			"byteLength":22536,
			"byteOffset":752380,
			"target":34962
		},
		{
			"buffer":0,
			"byteLength":22536,
			"byteOffset":774916,
			"target":34962
		},
		{
			"buffer":0,
			"byteLength":15024,
			"byteOffset":797452,
			"target":34962
		},
		{
			"buffer":0,
			"byteLength":22536,
			"byteOffset":812476,
			"target":34962
		},
		{
			"buffer":0,
			"byteLength":15024,
			"byteOffset":835012,
			"target":34962
		},
		{
			"buffer":0,
			"byteLength":7512,
			"byteOffset":850036,
			"target":34962
		},
		{
			"buffer":0,
			"byteLength":30048,
			"byteOffset":857548,
			"target":34962
		},
		{
			"buffer":0,
			"byteLength":15528,
			"byteOffset":887596,
			"target":34963
		},
		{
			"buffer":0,
			"byteLength":7872,
			"byteOffset":903124,
			"target":34962
		},
		{
			"buffer":0,
			"byteLength":7872,
			"byteOffset":910996,
			"target":34962
		},
		{
			"buffer":0,
			"byteLength":5248,
			"byteOffset":918868,
			"target":34962
		},
		{
			"buffer":0,
			"byteLength":7872,
			"byteOffset":924116,
			"target":34962
		},
		{
			"buffer":0,
			"byteLength":5248,
			"byteOffset":931988,
			"target":34962
		},
		{
			"buffer":0,
			"byteLength":2624,
			"byteOffset":937236,
			"target":34962
		},
		{
			"buffer":0,
			"byteLength":10496,
			"byteOffset":939860,
			"target":34962
		},
		{
			"buffer":0,
			"byteLength":6672,
			"byteOffset":950356,
			"target":34963
		},
		{
			"buffer":0,
			"byteLength":21156,
			"byteOffset":957028,
			"target":34962
		},
		{
			"buffer":0,
			"byteLength":21156,
			"byteOffset":978184,
			"target":34962
		},
		{
			"buffer":0,
			"byteLength":14104,
			"byteOffset":999340,
			"target":34962
		},
		{
			"buffer":0,
			"byteLength":14104,
			"byteOffset":1013444,
			"target":34962
		},
		{
			"buffer":0,
			"byteLength":21156,
			"byteOffset":1027548,
			"target":34962
		},
		{
			"buffer":0,
			"byteLength":14104,
			"byteOffset":1048704,
			"target":34962
		},
		{
			"buffer":0,
			"byteLength":7052,
			"byteOffset":1062808,
			"target":34962
		},
		{
			"buffer":0,
			"byteLength":28208,
			"byteOffset":1069860,
			"target":34962
		},
		{
			"buffer":0,
			"byteLength":18828,
			"byteOffset":1098068,
			"target":34963
		}
	],
	"samplers":[
		{
			"magFilter":9729,
			"minFilter":9987
		}
	],
	"buffers":[
		{
			"byteLength":1116896,
			"uri":"villager_m1.bin"
		}
	]
}
